<svg xmlns="http://www.w3.org/2000/svg" viewBox="0 0 1536 640"><defs><style>.cls-1{fill:#d99b21;}.cls-2{fill:#001a4d;}</style></defs><path class="cls-1" d="M218.2478,410.031c1.9377,5.2459,3.7882,10.7432,5.3214,16.0992-10.5,27.054-42.9274,29.1667-57.683,14.1748a118.5089,118.5089,0,0,1-6.4765-14.3522C173.1941,428.427,205.6981,421.0062,218.2478,410.031ZM298.647,202.9056a39.5672,39.5672,0,0,0,.1643-19.9764,40.3413,40.3413,0,0,0-11.9527-19.6654s-12.8344-23.748-36.2329-23.748a59.5719,59.5719,0,0,0-38.0086,14.2808c-9.0431,17.0659-12.1177,35.75-7.4778,53.8841,4.3705,17.0815,15.01,31.3353,29.7267,41.894,0,0,30.0595,2.0527,47.0676-10.5331C298.4114,226.848,298.647,202.9056,298.647,202.9056Zm33.2693,125.1159-50.0926,41.9634c-2.92-3.37-25.7-29.3574-36.0315-59.979l57.1231-33.1753C314.999,303.8541,324.5969,316.8764,331.9163,328.0215Zm-50.8356,40.5843-.0951.0762C281.5562,369.188,281.5388,369.1344,281.0807,368.6058ZM451.7629,403.67c-8.5119,9.8715-34.7939,26.1845-48.7453,26.2115a79.7519,79.7519,0,0,1,3.7671,14.8271c9.6075,15.877,50.3076.3879,46.2153-25.7082A95.027,95.027,0,0,0,451.7629,403.67Zm-141.01,88.1331c-.1213,4.5507-.4116,9.3871-.5979,14.4285,6.3819,20.677,47.2469,22.9839,58.6951-.549,2.6918-3.6181,6.6991-10.34,9.366-20.8271C358.72,499.0608,323.9519,498.5664,310.7529,491.8027Zm101.32-282.8218q1.87-6.337,3.1846-12.764A422.6941,422.6941,0,0,0,363.144,191.28a58.9824,58.9824,0,0,1-5.1259,11.9954C366.1493,223.3766,398.9558,225.1856,412.073,208.9809ZM1392,224V352a8,8,0,0,1-8,8H1088a8,8,0,0,1-8-8V224a8,8,0,0,1,8-8h296A8,8,0,0,1,1392,224ZM1229.6147,331.1286l-53.8066-46.6415,52.1843-39.6115v-4.8669H1205.28l-60.5664,45.9655V240.0087H1124.3v95.9869h20.414V295.0322h14.06l47.1824,40.9634h23.6586Zm32.5872-66.92h-19.8733v71.7874h19.8733Zm.4055-27.5793h-20.6845l.9465,17.3046h18.927Zm90.0391,98.5556-2.2984-14.6009a90.1469,90.1469,0,0,1-17.1694,1.6224c-16.0879,0-22.4419-6.3541-22.4419-17.9807V278.6738h41.3689V264.2082h-41.5041V245.0108h-10.41l-9.5987,19.1974h-17.3049v14.4656h17.5752v25.8218c0,20.279,10.68,33.1223,40.2876,33.1223A97.742,97.742,0,0,0,1352.6465,335.1845Z"/><path class="cls-2" d="M451.7629,403.67c-7.0752-43.33-43.559-72.67-80.7675-72.67a85.3511,85.3511,0,0,0-18.4662,2.0285,165.4133,165.4133,0,0,1-19.2343-26.0466c33.1162-13.7292,65.7517-53.8548,78.7781-98.001C409.4794,211.0508,403.8784,214,393,214c-22.8936,0-32.1667-7.6381-34.9817-10.7249C348.3425,220.5577,329.9443,235,310.9928,235a70.3468,70.3468,0,0,1-14.06-1.4015c7.6868-14.4438,9.0232-26.7611,4.2975-32.2026a1.9882,1.9882,0,0,0-3.4287.8519c-7.1541,28.8654-40.8477,46.7345-70.972,46.7345-30.4283,0-55.8828-17.3363-55.8828-43.8092,0-29.5483,34.1779-56.167,72.2814-56.167,17.1543,0,32.64,5.5254,42.9227,15.0734a1.9783,1.9783,0,0,0,3.3184-1.1738c2.498-16.9573-29.938-39.7428-69.1155-39.7428a100.3507,100.3507,0,0,0-13.5549.932l-2.4165-9.0188c-.663-2.4737-.2683-3.7882,1.4491-5.688a20.0029,20.0029,0,1,0-20.8434,5.67c2.4011.7537,3.3086,1.8073,3.96,4.2382l2.2057,8.2309c-37.6317,11.4657-65.1974,44.1148-65.1974,80.0132,0,46.8657,40.2178,68.2034,64.3478,73.3336a71.1154,71.1154,0,0,0-22.6625,20.0443l-4.0715-7.052a3.3306,3.3306,0,0,1-.24-3.4891,9.0023,9.0023,0,1,0-9.5659,5.5324,3.2956,3.2956,0,0,1,2.8738,1.9494l6.063,10.5012a91.8974,91.8974,0,0,0-7.4315,15.8227L134.9225,288.944a3.3563,3.3563,0,0,1-.1284-3.7434A11.99,11.99,0,0,0,123.542,268.008a11.999,11.999,0,0,0-.3595,23.9632,3.2731,3.2731,0,0,1,3.0831,1.9792l25.201,43.6475A117.6421,117.6421,0,0,0,148.9861,362c0,28.1362,4.8413,49.1114,10.4236,63.9528C161.333,427.7036,165.797,430,176,430c22.4,0,41.1427-9.52,42.2477-19.9691,19.5574,29.9335,40.2664,38.1765,74.7443,46.969,10.9084,2.7818,17.82,10.8692,17.82,31.047,0,1.2255-.0249,2.4834-.0589,3.7557C313.66,495.0617,321.1653,500,340,500c23.9269,0,34.437-10.0688,38.2161-15.1448A96.5674,96.5674,0,0,0,380.9958,461c0-24.7224-18.1115-47.8729-42.7993-61.2442A79.0217,79.0217,0,0,1,354.9946,398c21.3544,0,39.491,8.62,48.023,31.8815C404.6423,430.92,407.4225,432,412,432,426.88,432,446.6865,416.3863,451.7629,403.67ZM325.1968,328.7842c-25.5869,25.13-54.5144,41.8858-62.23,46.1462a2.9725,2.9725,0,0,1-3.5573-.5038c-16.9357-17.2706-26.7373-40.6778-29.5617-48.0815a2.737,2.737,0,0,1,1.3351-3.4275,580.6463,580.6463,0,0,0,67.8423-40.5415,1.9787,1.9787,0,0,1,2.9363.7925,290.5645,290.5645,0,0,0,23.583,41.7559A3.0136,3.0136,0,0,1,325.1968,328.7842ZM490.0005,440c0,22.1452-24.0283,41-50.0022,41-17.37,0-29.6243-12.0371-33.0015-35-.0644-.44-.1428-.8594-.2121-1.2918C408.0867,445.8847,410.2878,447,414,447c16.2083,0,39-17.2923,39-28,0,0,2.249-1,8-1C475.939,418,490.0005,425.6891,490.0005,440ZM368.85,505.6822c9.156,12.3615,14.1457,25.4135,14.1457,33.3178,0,14.9911-9.3339,29-26.0009,29-24.4138,0-47.0022-24.54-47.0022-54,0-2.6373.0653-5.2317.1589-7.7743C312.3765,509.78,318.8966,515,338,515,354.3015,515,363.746,509.9166,368.85,505.6822ZM223.5692,426.13c2.642,9.227,4.42,18.2629,4.42,25.87,0,12.69-3.4422,20.3935-11.2391,22.9945C214.44,488.9522,208.6157,497,196.988,497c-16.4931,0-32.0012-17.1991-32.0012-48a40.1688,40.1688,0,0,1,.8994-8.695C168.96,442.3258,173.9153,444,182,444,207.6107,444,219.7173,431.2775,223.5692,426.13ZM345.9941,167c0-5.0531,4.3138-8,10-8a23.8528,23.8528,0,0,1,7.9031,1.4828A60.8076,60.8076,0,0,1,362.995,150c0-17.8811,6.3453-32,22.0008-32,17.7215,0,33.0015,21.9209,33.0015,52a131.6953,131.6953,0,0,1-2.733,26.2133C412.6377,197.6932,406.6719,200,395,200c-25.2948,0-31.856-8.72-31.856-8.72C355.6077,184.985,345.9941,175.3266,345.9941,167ZM514.1328,283.5408h51.6438v48.8046a198.4508,198.4508,0,0,1-45.1545,5.2725c-42.18,0-64.6221-19.603-64.6221-49.751,0-30.6888,24.2-49.48,66.7852-49.48a199.9891,199.9891,0,0,1,40.6933,4.1909l-3.38,15.412a197.606,197.606,0,0,0-36.6374-3.38c-32.4461,0-46.9119,13.1137-46.9119,33.663,0,20.6845,13.9251,33.2575,44.6138,33.2575a172.28,172.28,0,0,0,25.8218-1.7575v-21.09l-32.8521-5.4077Zm448.9927,37.0428,2.2983,14.6009a97.7438,97.7438,0,0,1-21.4958,2.4334c-29.6072,0-40.2874-12.8433-40.2874-33.1223V278.6738H886.0654V264.2082H903.37l9.5987-19.1974h10.41v19.1974h41.5041v14.4656H923.5137v25.5515c0,11.6266,6.3542,17.9807,22.4421,17.9807A90.1508,90.1508,0,0,0,963.1255,320.5836ZM854.7,236.6289h20.6843l-.8113,17.3046H855.6465Zm208.7417,27.5793v4.8669L1013.9446,360H988.8157v-4.807l28.7961-22.5772v-.8112H1006.12l-34.3392-62.7295v-4.8669h19.3326l27.0388,54.2124,26.3625-54.2124Zm-430.4685,0h10.0044v18.927l-38.1243,9.4635v43.3969H584.98V264.2082h13.3843l5.2724,16.088Zm222.1321,0H874.979v71.7874H855.1055Zm-32.0442,0h19.1975v4.8669l-38.26,66.9205H787.37l-38.53-66.92v-4.8669h19.4678l27.4443,50.1565ZM691.1089,262.721a156.8111,156.8111,0,0,0-32.8518,3.65l2.2983,13.79a146.454,146.454,0,0,1,28.6609-3.11c19.1973,0,25.9568,6.0837,26.9033,16.3583l-34.88.9464c-19.3325.5408-28.5256,8.6524-28.5256,21.3605,0,12.5729,10.2747,21.9012,30.013,21.9012,13.2487,0,25.1457-4.5965,34.6093-10.2747l4.7317,8.6524h14.06v-38.26C736.1282,276.3755,725.8535,262.721,691.1089,262.721Zm25.146,55.2939c-8.3821,3.9206-17.5752,6.6245-27.3091,6.6245-12.1672,0-17.3047-4.191-17.44-10.2747,0-5.9484,4.3259-9.1931,12.3022-9.4634l32.4466-1.0816Z"/></svg>
