<svg id="Layer_1" xmlns="http://www.w3.org/2000/svg" width="6in" height="4in" viewBox="0 0 432 288"><defs><style>.st0{fill:url(#linear-gradient)}.st1{stroke-width:8.5px}.st1,.st2,.st3,.st4,.st5{stroke:#4c2028;stroke-linecap:round;stroke-linejoin:round}.st1,.st2,.st3,.st6{fill:#ffccef}.st2,.st4,.st5{stroke-width:8.3px}.st3{stroke-width:8.1px}.st4{fill:#ffa9d9}.st7{stroke:#000;stroke-miterlimit:10;stroke-width:5px}.st5,.st7{fill:none}.st8{font-family:FontAwesome,FontAwesome;font-size:12px}</style><linearGradient id="linear-gradient" y1="144" x2="432" y2="144" gradientUnits="userSpaceOnUse"><stop offset="0" stop-color="#908cbf"/><stop offset="1" stop-color="#560e89"/></linearGradient></defs><path class="st0" d="M0 0H432V288H0z"/><text class="st8" transform="translate(237 -33.5)"><tspan x="0" y="0"></tspan></text><path class="st6" d="M297.5 55.9h-163c-6.1 0-11 4.9-11 11v154.2c0 6.1 4.9 11 11 11h163c6.1 0 11-4.9 11-11V66.9c0-6.1-4.9-11-11-11z"/><path class="st6" d="M279.3 144H152.7c-6.1 0-11 4.9-11 11v49.6c0 6.1 4.9 11 11 11h126.6c6.1 0 11-4.9 11-11V155c0-6.1-4.9-11-11-11zm.3-66.1h-69.5c-5.9 0-10.7 4.9-10.7 11v27.5c0 6.1 4.8 11 10.7 11h69.5c5.9 0 10.7-4.9 10.7-11V88.9c0-6.1-4.8-11-10.7-11zm-108.4 0h-17.7c-6.5 0-11.8 4.9-11.8 11v27.5c0 6.1 5.3 11 11.8 11h17.7c6.5 0 11.8-4.9 11.8-11V88.9c0-6.1-5.3-11-11.8-11zm61.3 101.9h-33m16.5-16.5v33"/><g><path class="st4" d="M297.5 55.9h-163c-6.1 0-11 4.9-11 11v154.2c0 6.1 4.9 11 11 11h163c6.1 0 11-4.9 11-11V66.9c0-6.1-4.9-11-11-11z"/><path class="st2" d="M279.3 144H152.7c-6.1 0-11 4.9-11 11v49.6c0 6.1 4.9 11 11 11h126.6c6.1 0 11-4.9 11-11V155c0-6.1-4.9-11-11-11z"/><path class="st3" d="M279.6 77.9h-69.5c-5.9 0-10.7 4.9-10.7 11v27.5c0 6.1 4.8 11 10.7 11h69.5c5.9 0 10.7-4.9 10.7-11V88.9c0-6.1-4.8-11-10.7-11z"/><path class="st1" d="M171.2 77.9h-17.7c-6.5 0-11.8 4.9-11.8 11v27.5c0 6.1 5.3 11 11.8 11h17.7c6.5 0 11.8-4.9 11.8-11V88.9c0-6.1-5.3-11-11.8-11z"/><path class="st5" d="M232.5 179.8h-33m16.5-16.5v33"/></g><g><path class="st5" d="M297.5 55.9h-163c-6.1 0-11 4.9-11 11v154.2c0 6.1 4.9 11 11 11h163c6.1 0 11-4.9 11-11V66.9c0-6.1-4.9-11-11-11z"/><path class="st5" d="M279.3 144H152.7c-6.1 0-11 4.9-11 11v49.6c0 6.1 4.9 11 11 11h126.6c6.1 0 11-4.9 11-11V155c0-6.1-4.9-11-11-11zm.3-66.1h-69.5c-5.9 0-10.7 4.9-10.7 11v27.5c0 6.1 4.8 11 10.7 11h69.5c5.9 0 10.7-4.9 10.7-11V88.9c0-6.1-4.8-11-10.7-11zm-108.4 0h-17.7c-6.5 0-11.8 4.9-11.8 11v27.5c0 6.1 5.3 11 11.8 11h17.7c6.5 0 11.8-4.9 11.8-11V88.9c0-6.1-5.3-11-11.8-11zm61.3 101.9h-33m16.5-16.5v33"/></g></svg>