<svg height="403.2" width="583.2" xmlns="http://www.w3.org/2000/svg" xmlns:xlink="http://www.w3.org/1999/xlink"><linearGradient id="a" gradientUnits="userSpaceOnUse" x2="583.2" y1="201.6" y2="201.6"><stop offset="0" stop-color="#938ec5"/><stop offset="1" stop-color="#5e008e"/></linearGradient><path d="m0 0h583.2v403.2h-583.2z" fill="url(#a)"/><text transform="translate(236.3 -31.2)"><tspan x="0" y="0"/></text><path d="m398.8 85.8h-214.2c-8 0-14.5 6.5-14.5 14.5v202.7c0 8 6.5 14.5 14.5 14.5h214.2c8 0 14.5-6.5 14.5-14.5v-202.8c0-8-6.5-14.5-14.5-14.5z" fill="#ffccef"/><path d="m377 201.6h-166.5c-8 0-14.5 6.5-14.5 14.5v65.1c0 8 6.5 14.5 14.5 14.5h166.5c8 0 14.5-6.5 14.5-14.5v-65.1c0-8-6.5-14.5-14.5-14.5zm0-86.8h-94.1c-8 0-14.5 6.5-14.5 14.5v36.2c0 8 6.5 14.5 14.5 14.5h94.1c8 0 14.5-6.5 14.5-14.5v-36.2c0-8-6.5-14.5-14.5-14.5zm-144.7 0h-21.7c-8 0-14.5 6.5-14.5 14.5v36.2c0 8 6.5 14.5 14.5 14.5h21.7c8 0 14.5-6.5 14.5-14.5v-36.2c0-8-6.5-14.5-14.5-14.5zm79.5 137.4h-43.5m21.8-21.7v43.5" fill="#ffccef"/><g stroke="#4c2028" stroke-linecap="round" stroke-linejoin="round" stroke-width="10.9"><path d="m398.8 85.8h-214.2c-8 0-14.5 6.5-14.5 14.5v202.7c0 8 6.5 14.5 14.5 14.5h214.2c8 0 14.5-6.5 14.5-14.5v-202.8c0-8-6.5-14.5-14.5-14.5z" fill="#ffa9d9"/><path d="m377 201.6h-166.5c-8 0-14.5 6.5-14.5 14.5v65.1c0 8 6.5 14.5 14.5 14.5h166.5c8 0 14.5-6.5 14.5-14.5v-65.1c0-8-6.5-14.5-14.5-14.5zm0-86.8h-94.1c-8 0-14.5 6.5-14.5 14.5v36.2c0 8 6.5 14.5 14.5 14.5h94.1c8 0 14.5-6.5 14.5-14.5v-36.2c0-8-6.5-14.5-14.5-14.5zm-144.7 0h-21.7c-8 0-14.5 6.5-14.5 14.5v36.2c0 8 6.5 14.5 14.5 14.5h21.7c8 0 14.5-6.5 14.5-14.5v-36.2c0-8-6.5-14.5-14.5-14.5z" fill="#ffccef"/><path d="m311.8 252.2h-43.5m21.8-21.7v43.5" fill="none"/><path d="m398.8 85.8h-214.2c-8 0-14.5 6.5-14.5 14.5v202.7c0 8 6.5 14.5 14.5 14.5h214.2c8 0 14.5-6.5 14.5-14.5v-202.8c0-8-6.5-14.5-14.5-14.5z" fill="none"/><path d="m377 201.6h-166.5c-8 0-14.5 6.5-14.5 14.5v65.1c0 8 6.5 14.5 14.5 14.5h166.5c8 0 14.5-6.5 14.5-14.5v-65.1c0-8-6.5-14.5-14.5-14.5zm0-86.8h-94.1c-8 0-14.5 6.5-14.5 14.5v36.2c0 8 6.5 14.5 14.5 14.5h94.1c8 0 14.5-6.5 14.5-14.5v-36.2c0-8-6.5-14.5-14.5-14.5zm-144.7 0h-21.7c-8 0-14.5 6.5-14.5 14.5v36.2c0 8 6.5 14.5 14.5 14.5h21.7c8 0 14.5-6.5 14.5-14.5v-36.2c0-8-6.5-14.5-14.5-14.5zm79.5 137.4h-43.5m21.8-21.7v43.5" fill="none"/></g></svg>