<svg xmlns="http://www.w3.org/2000/svg" viewBox="0 0 250 250" style="background-image:none"><g style="transform-origin:50% 50%;transform:rotate(0deg) scale(.78,.78)" class="ldl-scale"><g class="ldl-ani" style="transform-origin:125px 125px;transform:translate(0,0);animation:bounceAlt-9b7dc74a-bae5-4c7c-b52c-d4d8b13aaba1 1.1627906976744187s linear 0s infinite normal forwards"><g class="ldl-layer"><path fill="rgb(16, 153, 214)" d="M-444.6 14.7c-26.5 0-48.1 21.6-48.1 48.1v39.8h20.6V62.8c0-15.2 12.3-27.5 27.5-27.5 15.1 0 27.5 12.3 27.5 27.5v39.8h20.6V62.8c0-26.6-21.6-48.1-48.1-48.1z" class=""/></g><g class="ldl-layer"><path fill="rgb(27, 43, 89)" d="M-444.6 90c-38.5 0-69.7 4.8-69.7 10.8v79.8c0 38.5 47.5 54.8 69.7 54.8s69.7-16.3 69.7-54.8v-79.8c-.1-6-31.3-10.8-69.7-10.8z" class=""/></g><g class="ldl-layer"><path fill="rgb(255, 255, 255)" d="M-444.6 110.2c-23 0-42.5 15.3-48.9 36.2h14.8c5.8-13.1 18.9-22.3 34.1-22.3 20.5 0 37.2 16.7 37.2 37.2s-16.7 37.2-37.2 37.2c-15.2 0-28.3-9.2-34.1-22.3h-14.8c6.4 20.9 25.9 36.2 48.9 36.2 28.2 0 51.1-22.9 51.1-51.1-.1-28.2-23-51.1-51.1-51.1z" class=""/></g><g class="ldl-layer"><path fill="rgb(255, 255, 255)" d="M-425 159l-28.3-16.4c-2.2-1.3-4-.2-4 2.3v9.8h-56.9v13h56.9v9.8c0 2.5 1.8 3.6 4 2.3l28.3-16.4c2.2-1.1 2.2-3.1 0-4.4z" class=""/></g><g class="ldl-layer"><path fill="rgb(16, 153, 214)" d="M125 2.1c-29.5 0-53.6 24-53.6 53.6v44.4h23V55.7c0-16.9 13.7-30.6 30.6-30.6s30.6 13.7 30.6 30.6v44.4h23V55.7c0-29.5-24.1-53.6-53.6-53.6z" class=""/></g><g class="ldl-layer"><path fill="rgb(27, 43, 89)" d="M125 86c-42.8 0-77.6 5.4-77.6 12v88.8c0 42.8 52.9 61 77.6 61s77.6-18.2 77.6-61V98c0-6.6-34.8-12-77.6-12z" class=""/></g><g class="ldl-layer"><path fill="rgb(255, 255, 255)" d="M125 108.5c-25.6 0-47.3 17-54.4 40.3H87c6.4-14.6 21-24.9 38-24.9 22.8 0 41.4 18.6 41.4 41.4s-18.6 41.4-41.4 41.4c-17 0-31.6-10.2-38-24.9H70.6c7.1 23.3 28.8 40.3 54.4 40.3 31.4 0 56.9-25.5 56.9-56.9 0-31.1-25.5-56.7-56.9-56.7z" class=""/></g><g class="ldl-layer"><path fill="rgb(255, 255, 255)" d="M146.8 162.9l-31.6-18.2c-2.4-1.4-4.4-.3-4.4 2.6v11H47.4v14.5h63.4v11c0 2.8 2 4 4.4 2.6l31.6-18.2c2.5-1.6 2.5-3.9 0-5.3z" class=""/></g><text transform="translate(-651.103 309.96)"><tspan y="0" x="0" font-size="52.845" font-family="MuseoSans-900" fill="#1b2b59">Truste</tspan><tspan y="0" x="205.7" letter-spacing="3" font-size="52.845" font-family="MuseoSans-900" fill="#1b2b59">d</tspan><tspan y="0" x="248.8" letter-spacing="-3" font-size="52.845" font-family="MuseoSans-500" fill="#1099d6">L</tspan><tspan y="0" x="273.4" font-size="52.845" font-family="MuseoSans-500" fill="#1099d6">o</tspan><tspan y="0" x="316.3" font-size="52.845" font-family="MuseoSans-500" fill="#1099d6">gin</tspan></text><g class="ldl-layer"><path fill="rgb(16, 153, 214)" d="M-540.7 472.6c-26.5 0-48.1 21.6-48.1 48.1v39.8h20.6v-39.8c0-15.2 12.3-27.5 27.5-27.5 15.1 0 27.5 12.3 27.5 27.5v39.8h20.6v-39.8c0-26.5-21.6-48.1-48.1-48.1z" class=""/></g><g class="ldl-layer"><path fill="rgb(27, 43, 89)" d="M-540.7 547.9c-38.5 0-69.7 4.8-69.7 10.8v79.8c0 38.5 47.5 54.8 69.7 54.8S-471 677-471 638.5v-79.8c-.1-6-31.3-10.8-69.7-10.8z" class=""/></g><g class="ldl-layer"><path fill="rgb(255, 255, 255)" d="M-540.7 568.1c-23 0-42.5 15.3-48.9 36.2h14.8c5.8-13.1 18.9-22.3 34.1-22.3 20.5 0 37.2 16.7 37.2 37.2s-16.7 37.2-37.2 37.2c-15.2 0-28.3-9.2-34.1-22.3h-14.8c6.4 20.9 25.9 36.2 48.9 36.2 28.2 0 51.1-22.9 51.1-51.1-.1-28.2-23-51.1-51.1-51.1z" class=""/></g><g class="ldl-layer"><path fill="rgb(255, 255, 255)" d="M-521.1 616.9l-28.3-16.4c-2.2-1.3-4-.2-4 2.3v9.8h-56.9v13h56.9v9.8c0 2.5 1.8 3.6 4 2.3l28.3-16.4c2.2-1.1 2.2-3.1 0-4.4z" class=""/></g><text transform="translate(-426.594 648.752)"><tspan y="0" x="0" letter-spacing="1" font-size="121.171" font-family="MuseoSans-900" fill="#1b2b59">TRUSTE</tspan><tspan y="0" x="471.7" letter-spacing="6" font-size="121.171" font-family="MuseoSans-900" fill="#1b2b59">D</tspan><tspan y="0" x="568.2" letter-spacing="-2" font-size="121.171" font-family="MuseoSans-500" fill="#1099d6">L</tspan><tspan y="0" x="629.6" letter-spacing="1" font-size="121.171" font-family="MuseoSans-500" fill="#1099d6">OGIN</tspan></text></g></g><style id="bounceAlt-9b7dc74a-bae5-4c7c-b52c-d4d8b13aaba1">@keyframes bounceAlt-9b7dc74a-bae5-4c7c-b52c-d4d8b13aaba1{0%{animation-timing-function:cubic-bezier(.1348,.3256,.2495,.8687);transform:translate(0,0)}51%{animation-timing-function:cubic-bezier(.7426,.1782,.8523,.6514);transform:translate(0,-14px)}to{transform:translate(0,0)}}</style></svg>