<svg width="300" height="359" viewBox="0 0 300 359" fill="none" xmlns="http://www.w3.org/2000/svg">
<rect width="300" height="345" fill="#3A7F9E"/>
<g filter="url(#filter0_d)">
<rect x="20" y="20" width="260" height="305" rx="4" fill="white"/>
</g>
<rect x="35" y="35" width="85" height="40" rx="4" fill="#E1E3E6"/>
<g clip-path="url(#clip0)">
<path d="M82.707 59.293L80.167 56.753C80.8531 55.7165 81.1298 54.462 80.9434 53.233C80.7569 52.004 80.1207 50.888 79.1581 50.1015C78.1955 49.315 76.975 48.9141 75.7335 48.9764C74.492 49.0388 73.3179 49.56 72.4389 50.439C71.5599 51.3179 71.0387 52.492 70.9764 53.7336C70.914 54.9751 71.315 56.1955 72.1015 57.1581C72.888 58.1207 74.004 58.757 75.233 58.9434C76.462 59.1298 77.7164 58.8531 78.753 58.167L81.293 60.707C81.4816 60.8892 81.7342 60.99 81.9964 60.9877C82.2586 60.9854 82.5094 60.8803 82.6948 60.6949C82.8802 60.5095 82.9854 60.2586 82.9877 59.9964C82.99 59.7342 82.8892 59.4816 82.707 59.293V59.293ZM73 54C73 53.4067 73.176 52.8267 73.5056 52.3333C73.8353 51.84 74.3038 51.4555 74.852 51.2284C75.4001 51.0013 76.0033 50.9419 76.5853 51.0577C77.1672 51.1734 77.7018 51.4592 78.1213 51.8787C78.5409 52.2983 78.8266 52.8328 78.9424 53.4148C79.0581 53.9967 78.9987 54.5999 78.7717 55.1481C78.5446 55.6963 78.1601 56.1648 77.6667 56.4945C77.1734 56.8241 76.5934 57 76 57C75.2044 57 74.4413 56.684 73.8787 56.1214C73.3161 55.5588 73 54.7957 73 54V54Z" fill="#1D2327"/>
</g>
<rect x="135" y="35" width="130" height="40" rx="4" fill="#E1E3E6"/>
<g clip-path="url(#clip1)">
<path d="M205.941 49.264C205.898 49.1842 205.835 49.1175 205.757 49.071C205.679 49.0245 205.591 49 205.5 49H194.5C194.41 49 194.321 49.0246 194.243 49.0711C194.166 49.1176 194.102 49.1843 194.059 49.264C194.017 49.3437 193.997 49.4336 194.001 49.5239C194.005 49.6142 194.034 49.7017 194.084 49.777L198 55.651V60.5C198 60.6326 198.053 60.7598 198.146 60.8536C198.24 60.9473 198.367 61 198.5 61H201.5C201.633 61 201.76 60.9473 201.854 60.8536C201.947 60.7598 202 60.6326 202 60.5V55.651L205.916 49.777C205.966 49.7017 205.995 49.6143 205.999 49.524C206.004 49.4336 205.984 49.3438 205.941 49.264V49.264Z" fill="#1D2327"/>
</g>
<rect x="35" y="90" width="230" height="165" rx="4" fill="#E1E3E6"/>
<path d="M154 164H146C145.47 164 144.961 164.211 144.586 164.586C144.211 164.961 144 165.47 144 166V174C144 174.53 144.211 175.039 144.586 175.414C144.961 175.789 145.47 176 146 176H154C154.53 176 155.039 175.789 155.414 175.414C155.789 175.039 156 174.53 156 174V166C156 165.47 155.789 164.961 155.414 164.586C155.039 164.211 154.53 164 154 164V164ZM154 169H151V166H154V169ZM149 166V169H146V166H149ZM146 171H149V174H146V171ZM151 174V171H154V174H151Z" fill="#212121"/>
<rect x="35" y="270" width="40" height="40" rx="4" fill="#E1E3E6"/>
<path d="M57 295.4L51.6 290L57 284.6L58.4 286L54.4 290L58.4 294L57 295.4Z" fill="#1D2327"/>
<rect width="40" height="40" rx="4" transform="matrix(-1 0 0 1 265 270)" fill="#E1E3E6"/>
<path d="M243 295.4L248.4 290L243 284.6L241.6 286L245.6 290L241.6 294L243 295.4Z" fill="#1D2327"/>
<defs>
<filter id="filter0_d" x="-10" y="-6" width="320" height="365" filterUnits="userSpaceOnUse" color-interpolation-filters="sRGB">
<feFlood flood-opacity="0" result="BackgroundImageFix"/>
<feColorMatrix in="SourceAlpha" type="matrix" values="0 0 0 0 0 0 0 0 0 0 0 0 0 0 0 0 0 0 127 0"/>
<feOffset dy="4"/>
<feGaussianBlur stdDeviation="15"/>
<feColorMatrix type="matrix" values="0 0 0 0 0 0 0 0 0 0 0 0 0 0 0 0 0 0 0.25 0"/>
<feBlend mode="normal" in2="BackgroundImageFix" result="effect1_dropShadow"/>
<feBlend mode="normal" in="SourceGraphic" in2="effect1_dropShadow" result="shape"/>
</filter>
<clipPath id="clip0">
<rect width="12" height="12" fill="white" transform="translate(71 49)"/>
</clipPath>
<clipPath id="clip1">
<rect width="12" height="12" fill="white" transform="translate(194 49)"/>
</clipPath>
</defs>
</svg>
