<?xml version="1.0" encoding="UTF-8"?>
<svg enable-background="new 0 0 139.3 220.7" version="1.1" viewBox="0 0 139.3 220.7" xml:space="preserve" xmlns="http://www.w3.org/2000/svg">
<style type="text/css">
	.st0{fill:#1099D6;}
	.st1{fill:#1B2B59;}
	.st2{fill:#FFFFFF;}
</style>
			<path class="st0" d="M70.7,0C44.1,0,22.5,21.6,22.5,48.1V88h20.6V48.1c0-15.2,12.3-27.5,27.5-27.5c15.1,0,27.5,12.3,27.5,27.5V88     h20.6V48.1C118.8,21.6,97.2,0,70.7,0z"/>
				<path class="st1" d="m70.7 75.3c-38.5 0-69.7 4.9-69.7 10.8v79.8c0 38.5 47.5 54.8 69.7 54.8s69.7-16.3 69.7-54.8v-79.8c-0.1-5.9-31.3-10.8-69.7-10.8z"/>
		<path class="st2" d="m70.7 95.6c-23 0-42.5 15.3-48.9 36.2h14.8c5.8-13.1 18.9-22.3 34.1-22.3 20.5 0 37.2 16.7 37.2 37.2s-16.7 37.2-37.2 37.2c-15.2 0-28.3-9.2-34.1-22.3h-14.8c6.4 20.9 25.9 36.2 48.9 36.2 28.2 0 51.1-22.9 51.1-51.1-0.1-28.2-23-51.1-51.1-51.1z"/>
	<path class="st2" d="m90.3 144.3l-28.4-16.3c-2.2-1.3-4-0.2-4 2.3v9.8h-56.9v13h56.9v9.8c0 2.5 1.8 3.6 4 2.3l28.3-16.4c2.3-1.1 2.3-3.2 0.1-4.5z"/>
</svg>
