<svg enable-background="new 0 0 611.9 187.2" viewBox="0 0 611.9 187.2" xmlns="http://www.w3.org/2000/svg"><ellipse cx="62.4" cy="179.4" fill="#809699" opacity=".4" rx="51.6" ry="1.6"/><path d="m88.2 159.8-.3.1-.8.2-.7.1h-.1c0-.2-.1-.3-.1-.5-.3-1.2-.7-2.4-1.3-3.5-.3-.6-.6-1.1-1-1.7-.7-1.1-1.6-2.1-2.5-2.9-.4-.3-.8-.6-1.1-.9-.9-.7-1.9-1.3-3-1.8-.4-.2-.9-.4-1.3-.5-.5-.2-.9-.3-1.4-.4-.1 0-.2 0-.3-.1-.1 0-.1 0-.2 0-.5-.1-.9-.2-1.4-.2-.5-.1-.9-.1-1.4-.1-1.2 0-2.4 0-3.5.3-.5.1-1 .2-1.4.3-1.4.4-2.7 1-4 1.7-.5.3-.9.6-1.3.9-1 .8-2 1.7-2.8 2.7-.1.1-.1.2-.2.3 0 .1-.1.1-.1.2l-.3-.2-.3-.2-.4-.3-.5-.4c.3-.4.7-.9 1-1.3.1-.2.3-.3.4-.4s.1-.2.2-.2c0 0 .1-.1.1-.1l.2-.2s.1-.1.1-.1.1-.1.1-.1.1-.1.1-.1c4.2-3.8 10.1-5.4 15.8-4.2h.2c.1 0 .2 0 .3.1 5.5 1.4 10 5.3 12.2 10.5.2.5.4 1.1.6 1.6.1.3.2.8.4 1.4z" fill="#303c42"/><g fill="#231f20"><path d="m34.9 149h18.8v1.4h-18.8z" transform="matrix(.2235 -.9747 .9747 .2235 -111.5347 159.3617)"/><path d="m40 150.7h17.4v1.3h-17.4z" transform="matrix(.2235 -.9747 .9747 .2235 -109.766 165.0276)"/><path d="m55.1 146.9-2.6 11.3-1.1-.2 2.6-11.4z"/><path d="m39.7 61.5 12.8-46 .3.1-8.5 47z"/><ellipse cx="52.4" cy="16.5" rx="1.7" ry="1.7" transform="matrix(.2227 -.9749 .9749 .2227 24.6465 63.8931)"/><path d="m40.2 75.5 12.8-46 .3.1-8.5 47z"/><ellipse cx="52.9" cy="30.5" rx="1.7" ry="1.7" transform="matrix(.223 -.9748 .9748 .223 11.4178 75.28)"/></g><path d="m108.3 115.2c-.8 3.3-4 5.4-7.3 4.6l-69-15.8c-3.3-.8-5.4-4-4.6-7.3l11.3-49.3c.8-3.3 4-5.4 7.3-4.6l69 15.8c3.3.8 5.4 4 4.6 7.3z" fill="#809699" stroke="#231f20" stroke-miterlimit="10" stroke-width="1.7703"/><path d="m84.2 17.2h7.5v2.5h-7.5z" fill="#231f20" transform="matrix(.2232 -.9748 .9748 .2232 50.2882 100.0249)"/><ellipse cx="89.8" cy="10.4" fill="#231f20" rx="5.4" ry="5.4" transform="matrix(.2239 -.9746 .9746 .2239 59.5205 95.5467)"/><path d="m63.9 121c-.2-2.1-1.2-4.2-2.8-6.1-2.3-2.7-5.8-4.8-10-5.8-.5-.1-.9-.2-1.4-.3-.6-.1-1.3-.2-1.9-.2-.8 0-1.5-.1-2.2 0-.3 0-.7 0-1 .1-.3 0-.7.1-1 .1-2.2.4-4.2 1.1-5.9 2.2-.3.2-.6.4-.9.7-.1.1-.3.2-.4.3-.3.3-.7.6-1 1-.2.2-.4.4-.5.6h1.2c.4 0 .8 0 1.2.1l-1.9 8.5c-.7-.5-1.3-1.1-1.8-1.7-.3-.3-.5-.6-.8-.9l-5.7 24.7c-.2.7-.2 1.4-.2 2.2v.1c.1 1.9.7 3.8 1.9 5.5.1.2.2.3.3.5.2.3.4.5.6.8.8.9 1.7 1.8 2.8 2.6.4.3.8.5 1.2.8 1.8 1.1 3.8 1.9 6 2.4s4.4.6 6.4.4c.5 0 .9-.1 1.4-.2 1.4-.3 2.7-.7 3.8-1.2 0 0 .1 0 .1-.1l1.2-.6c1.5-.9 2.7-2.1 3.6-3.5.2-.3.3-.6.5-.9 0-.1.1-.1.1-.2.2-.4.3-.8.4-1.2 0-.1 0-.1.1-.2 0 0 0 0 0-.1s0-.2.1-.3l6.2-27.1c.3-1 .4-2 .3-3zm-18.1-3.5-1.8 8-3-.7 2.1-9.3c1 .5 1.9 1.2 2.7 2zm-7.4-3.6c1.3.2 2.5.6 3.7 1.1l-2.2 9.5c-1.3-.4-2.5-.9-3.6-1.6zm-10.5 32.4c.8-1 1.8-1.9 2.8-2.7l-1.6 7c-.7-1.4-1.2-2.8-1.2-4.3zm2.2 5.9 2.2-9.6c1.1-.6 2.3-1.1 3.6-1.5l-3.1 13.7c-1.1-.8-1.9-1.7-2.7-2.6zm7.2-11.4c1.1-.2 2.3-.3 3.5-.2l-3.8 16.6c-1.1-.4-2.1-1-3.1-1.6zm1 16.8 3.9-17c.5.1 1 .1 1.5.3h.1c.6.1 1.1.3 1.7.5l-3.9 17c-.5-.1-1.1-.2-1.6-.3-.6-.1-1.2-.3-1.7-.5zm4.6.9 3.8-16.6c1.1.5 2.1 1.1 3 1.8l-3.4 14.8c-1 .1-2.2.1-3.4 0zm4.9-.3 3.1-13.6c1.1 1 2 2.1 2.8 3.3l-2 8.9c-1.2.7-2.5 1.1-3.9 1.4zm5.2-2.2 1.5-6.6c.5 1.1 1 2.3 1.3 3.5-.6 1.2-1.6 2.3-2.8 3.1z" fill="#809699"/><path d="m57.4 151.4c0-.2 0-.2.1-.3l6.2-27.1c.2-1 .3-2 .2-3-.2-2.1-1.2-4.2-2.8-6.1-2.3-2.7-5.8-4.8-10-5.8-.5-.1-.9-.2-1.4-.3-.6-.1-1.3-.2-1.9-.2l-.2.9c.6 0 1.3.1 1.9.2.5.1.9.2 1.4.3 7.8 1.8 13.1 7.9 11.8 13.7l-6 26c.1.3.3.7.4 1 0 .1 0 .1.1.2.1.3.1.4.2.5 0 .1 0 .1 0 0zm0 0c0-.1 0-.2.1-.3l6.2-27.1c.2-1 .3-2 .2-3-.2-2.1-1.2-4.2-2.8-6.1-2.3-2.7-5.8-4.8-10-5.8-.5-.1-.9-.2-1.4-.3-.6-.1-1.3-.2-1.9-.2l-.2.9c.6 0 1.3.1 1.9.2.5.1.9.2 1.4.3 7.8 1.8 13.1 7.9 11.8 13.7l-6 26c.1.3.3.7.4 1 0 .1 0 .1.1.2.1.3.1.4.2.5 0 .1 0 .1 0 0zm6.5-30.4c-.2-2.1-1.2-4.2-2.8-6.1-2.3-2.7-5.8-4.8-10-5.8-.5-.1-.9-.2-1.4-.3-.6-.1-1.3-.2-1.9-.2l-.2.9c.6 0 1.3.1 1.9.2.5.1.9.2 1.4.3 7.8 1.8 13.1 7.9 11.8 13.7l-1.7 7.5.9.2 1.7-7.5c.3-.9.4-1.9.3-2.9zm0 0c-.2-2.1-1.2-4.2-2.8-6.1-2.3-2.7-5.8-4.8-10-5.8-.5-.1-.9-.2-1.4-.3-.6-.1-1.3-.2-1.9-.2l-.2.9c.6 0 1.3.1 1.9.2.5.1.9.2 1.4.3 7.8 1.8 13.1 7.9 11.8 13.7l-1.7 7.5.9.2 1.7-7.5c.3-.9.4-1.9.3-2.9zm0 0c-.2-2.1-1.2-4.2-2.8-6.1-2.3-2.7-5.8-4.8-10-5.8-.5-.1-.9-.2-1.4-.3-.6-.1-1.3-.2-1.9-.2l-.2.9c.6 0 1.3.1 1.9.2.5.1.9.2 1.4.3 7.8 1.8 13.1 7.9 11.8 13.7l-1.7 7.5.9.2 1.7-7.5c.3-.9.4-1.9.3-2.9zm0 0c-.2-2.1-1.2-4.2-2.8-6.1-2.3-2.7-5.8-4.8-10-5.8-.5-.1-.9-.2-1.4-.3-.6-.1-1.3-.2-1.9-.2l-.2.9c.6 0 1.3.1 1.9.2.5.1.9.2 1.4.3 7.8 1.8 13.1 7.9 11.8 13.7l-1.7 7.5.9.2 1.7-7.5c.3-.9.4-1.9.3-2.9zm.9.3c0-.5-.1-.9-.2-1.4-1.1-5.3-6.3-10-13.3-11.6-.5-.1-.9-.2-1.4-.3-.6-.1-1.3-.2-1.9-.2-.7 0-1.5-.1-2.2 0-.3 0-.7 0-1 .1-.3 0-.7.1-1 .1-3 .4-5.7 1.6-7.7 3.2-.2.2-.5.4-.7.6-.1.1-.2.2-.3.3-.3.3-.6.6-.8.9-.1.2-.2.3-.3.5-.1.1-.1.2-.2.3-.6.9-1 1.9-1.3 3l-6.3 27.2c-.1.5-.2 1.1-.2 1.6v.2c-.2 6.2 5.4 12.3 13.5 14.2 4.7 1.1 9.3.5 12.8-1.3 0 0 .1-.1.2-.1 1.6-.9 3-2 4.1-3.3.3-.4.5-.7.8-1.1.1-.2.2-.3.3-.5 0-.1.1-.1.1-.2.3-.7.6-1.3.7-2.1l6.2-27.1c.2-1.1.2-2.1.1-3zm-30.9-7.5c.4 0 .7-.1 1.1-.1h1.2c.2-.2.4-.4.6-.6.4-.4.8-.7 1.3-1 .1 0 .1-.1.2-.1.6-.4 1.2-.7 1.8-1 1-.4 2.1-.8 3.3-1 .3-.1.7-.1 1-.2.3 0 .7-.1 1-.1.7 0 1.5-.1 2.2 0 .6 0 1.3.1 1.9.2.5.1.9.2 1.4.3 7.8 1.8 13.1 7.9 11.8 13.7l-6.2 27.1c-.2.7-.4 1.4-.7 2-.6 1.2-1.6 2.3-2.8 3.1-.4.3-.9.6-1.3.8-1.2.6-2.5 1.1-3.9 1.4-.5.1-.9.2-1.4.2-1.1.1-2.3.2-3.4.1-.5 0-.9-.1-1.4-.1-.5-.1-1.1-.2-1.6-.3-.6-.1-1.1-.3-1.6-.4-.4-.1-.9-.3-1.3-.5-1.1-.4-2.1-1-3.1-1.6-.4-.3-.8-.5-1.2-.8-1-.8-1.9-1.7-2.6-2.6-.4-.5-.7-1-1-1.6-.8-1.4-1.2-2.9-1.2-4.3 0-.6.1-1.3.2-1.9l5.5-23.9c-.3-.3-.5-.6-.8-.9-.1-.1-.1-.2-.2-.3zm30 7.2c-.2-2.1-1.2-4.2-2.8-6.1-2.3-2.7-5.8-4.8-10-5.8-.5-.1-.9-.2-1.4-.3-.6-.1-1.3-.2-1.9-.2l-.2.9c.6 0 1.3.1 1.9.2.5.1.9.2 1.4.3 7.8 1.8 13.1 7.9 11.8 13.7l-1.7 7.5.9.2 1.7-7.5c.3-.9.4-1.9.3-2.9zm0 0c-.2-2.1-1.2-4.2-2.8-6.1-2.3-2.7-5.8-4.8-10-5.8-.5-.1-.9-.2-1.4-.3-.6-.1-1.3-.2-1.9-.2l-.2.9c.6 0 1.3.1 1.9.2.5.1.9.2 1.4.3 7.8 1.8 13.1 7.9 11.8 13.7l-1.7 7.5.9.2 1.7-7.5c.3-.9.4-1.9.3-2.9zm0 0c-.2-2.1-1.2-4.2-2.8-6.1-2.3-2.7-5.8-4.8-10-5.8-.5-.1-.9-.2-1.4-.3-.6-.1-1.3-.2-1.9-.2l-.2.9c.6 0 1.3.1 1.9.2.5.1.9.2 1.4.3 7.8 1.8 13.1 7.9 11.8 13.7l-1.7 7.5.9.2 1.7-7.5c.3-.9.4-1.9.3-2.9zm-6.5 30.4c0-.1 0-.2.1-.3l6.2-27.1c.2-1 .3-2 .2-3-.2-2.1-1.2-4.2-2.8-6.1-2.3-2.7-5.8-4.8-10-5.8-.5-.1-.9-.2-1.4-.3-.6-.1-1.3-.2-1.9-.2l-.2.9c.6 0 1.3.1 1.9.2.5.1.9.2 1.4.3 7.8 1.8 13.1 7.9 11.8 13.7l-6 26c.1.3.3.7.4 1 0 .1 0 .1.1.2.1.3.1.4.2.5 0 .1 0 .1 0 0zm0 0c0-.2 0-.2.1-.3l6.2-27.1c.2-1 .3-2 .2-3-.2-2.1-1.2-4.2-2.8-6.1-2.3-2.7-5.8-4.8-10-5.8-.5-.1-.9-.2-1.4-.3-.6-.1-1.3-.2-1.9-.2l-.2.9c.6 0 1.3.1 1.9.2.5.1.9.2 1.4.3 7.8 1.8 13.1 7.9 11.8 13.7l-6 26c.1.3.3.7.4 1 0 .1 0 .1.1.2.1.3.1.4.2.5 0 .1 0 .1 0 0zm0 0c0-.2 0-.2.1-.3l6.2-27.1c.2-1 .3-2 .2-3-.2-2.1-1.2-4.2-2.8-6.1-2.3-2.7-5.8-4.8-10-5.8-.5-.1-.9-.2-1.4-.3-.6-.1-1.3-.2-1.9-.2l-.2.9c.6 0 1.3.1 1.9.2.5.1.9.2 1.4.3 7.8 1.8 13.1 7.9 11.8 13.7l-6 26c.1.3.3.7.4 1 0 .1 0 .1.1.2.1.3.1.4.2.5 0 .1 0 .1 0 0z" fill="#231f20"/><path d="m55.8 152.9c-.6 1.2-1.6 2.3-2.8 3.1l1.5-6.6c.6 1.1 1 2.3 1.3 3.5z" fill="#efefef"/><path d="m53.7 148-2 8.9c-1.2.6-2.5 1.1-3.9 1.4l3.1-13.6c1.1.9 2 2 2.8 3.3z" fill="#efefef"/><path d="m49.8 143.7-3.4 14.8c-1.1.1-2.3.2-3.4.1l3.8-16.6c1 .4 2 1 3 1.7z" fill="#efefef"/><path d="m45.5 141.4-3.9 17c-.5-.1-1.1-.2-1.6-.3-.6-.1-1.1-.3-1.6-.4l3.9-17c.5.1 1 .1 1.5.3h.1c.5 0 1 .2 1.6.4z" fill="#efefef"/><path d="m40.8 140.5-3.8 16.7c-1.1-.4-2.1-1-3.1-1.6l3.4-14.8c1.2-.2 2.4-.3 3.5-.3z" fill="#efefef"/><path d="m35.9 141.1-3.1 13.7c-1-.8-1.9-1.7-2.6-2.6l2.2-9.6c1.1-.7 2.3-1.1 3.5-1.5z" fill="#efefef"/><path d="m30.7 143.6-1.6 7c-.8-1.4-1.2-2.9-1.2-4.3.8-1 1.8-1.9 2.8-2.7z" fill="#efefef"/><path d="m92.3 134c-.7.3-1.5.5-2.3.7l1.9-8.4c.3.1.7.3 1 .4.4.2.7.4 1.1.6 0-.3-.1-.5-.2-.8-.1-.4-.3-.9-.5-1.3-.1-.2-.1-.3-.2-.5-.2-.3-.3-.7-.5-1-.4-.6-.8-1.2-1.3-1.8-.9-1-1.9-1.9-3.1-2.8-.3-.2-.6-.4-.9-.6s-.6-.3-.9-.5c-.6-.3-1.3-.7-2-.9-.6-.2-1.2-.5-1.8-.6-.4-.1-.9-.3-1.4-.4-7-1.6-13.8.6-16.6 5.1-.5.8-.9 1.8-1.1 2.8l-6.2 27.1c0 .1 0 .2-.1.3v.1.1c-.1.4-.1.9-.1 1.3v.1.3c0 .3 0 .5.1.7.2 1.7.8 3.3 1.8 4.8.3.4.6.8.9 1.2 0 0 .1.1.1.1.8 1 1.8 1.8 2.9 2.6.4.3.8.5 1.2.8 1.7 1.1 3.7 1.9 5.9 2.4 2.3.5 4.5.6 6.6.4.5 0 .9-.1 1.4-.2 1.6-.3 3.1-.8 4.4-1.5.2-.1.4-.2.6-.4 1.7-1 3.1-2.4 3.9-4 0 0 0-.1.1-.1 0 0 .1-.1.1-.1.3-.6.5-1.2.7-1.8v-.1l5.6-24.6c-.3.2-.7.3-1.1.5zm-9.7-8c1.1-.4 2.3-.6 3.4-.7l-2.1 9.3-3.1-.7zm6.3 8.9c-1.3.2-2.6.2-3.9-.1l2.2-9.5c1.3 0 2.6.2 3.8.6zm-30.7 18.7c.8-1 1.7-1.9 2.7-2.7l-1.5 6.7c-.7-1.3-1.1-2.7-1.2-4zm2.1 5.3 2.1-9c1.2-.8 2.6-1.4 4-1.8l-3.1 13.6c-1.3-.8-2.3-1.8-3-2.8zm7.4-11.1c1.1-.2 2.3-.3 3.5-.3l-3.8 16.6c-1.1-.4-2.1-1-3.1-1.6zm1 16.8 3.9-17c.5.1.9.1 1.4.2h.2c.1 0 .2 0 .3.1.5.1.9.3 1.4.4l-3.9 17c-.6-.1-1.2-.2-1.7-.3-.6-.1-1.1-.2-1.6-.4zm4.7.9 3.8-16.6c1.1.5 2.1 1.1 3 1.8l-3.4 14.7c-1.1.1-2.3.2-3.4.1zm7.9-13.9c1 .9 1.8 1.8 2.5 2.9l-2.2 9.4c-1.1.5-2.2 1-3.5 1.2zm2 11.4 1.5-6.7c.6 1.1 1 2.3 1.3 3.5-.6 1.2-1.5 2.3-2.8 3.2z" fill="#809699"/><path d="m82.8 116.5c-.4-.1-.9-.3-1.4-.4-7-1.6-13.8.6-16.6 5.1-.5.8-.9 1.8-1.1 2.8l-6.2 27.1c0 .1 0 .2-.1.3.1-.2.3-.3.4-.4s.1-.2.2-.2c0 0 .1-.1.1-.1l.2-.2s.1-.1.1-.1.1-.1.1-.1.1-.1.1-.1l5.9-25.9c1.3-5.8 8.8-9 16.6-7.2.5.1.9.2 1.4.4.6.2 1.2.4 1.8.6l.2-.9c-.5-.3-1.1-.5-1.7-.7zm0 0c-.4-.1-.9-.3-1.4-.4-7-1.6-13.8.6-16.6 5.1-.5.8-.9 1.8-1.1 2.8l-6.2 27.1c0 .1 0 .2-.1.3.1-.2.3-.3.4-.4s.1-.2.2-.2c0 0 .1-.1.1-.1l.2-.2s.1-.1.1-.1.1-.1.1-.1.1-.1.1-.1l5.9-25.9c1.3-5.8 8.8-9 16.6-7.2.5.1.9.2 1.4.4.6.2 1.2.4 1.8.6l.2-.9c-.5-.3-1.1-.5-1.7-.7zm0 0c-.4-.1-.9-.3-1.4-.4-7-1.6-13.8.6-16.6 5.1-.5.8-.9 1.8-1.1 2.8l-6.2 27.1c0 .1 0 .2-.1.3.1-.2.3-.3.4-.4s.1-.2.2-.2c0 0 .1-.1.1-.1l.2-.2s.1-.1.1-.1.1-.1.1-.1.1-.1.1-.1l5.9-25.9c1.3-5.8 8.8-9 16.6-7.2.5.1.9.2 1.4.4.6.2 1.2.4 1.8.6l.2-.9c-.5-.3-1.1-.5-1.7-.7zm0 0c-.4-.1-.9-.3-1.4-.4-7-1.6-13.8.6-16.6 5.1-.5.8-.9 1.8-1.1 2.8l-6.2 27.1c0 .1 0 .2-.1.3.1-.2.3-.3.4-.4s.1-.2.2-.2c0 0 .1-.1.1-.1l.2-.2s.1-.1.1-.1.1-.1.1-.1.1-.1.1-.1l5.9-25.9c1.3-5.8 8.8-9 16.6-7.2.5.1.9.2 1.4.4.6.2 1.2.4 1.8.6l.2-.9c-.5-.3-1.1-.5-1.7-.7zm0 0c-.4-.1-.9-.3-1.4-.4-7-1.6-13.8.6-16.6 5.1-.5.8-.9 1.8-1.1 2.8l-6.2 27.1c0 .1 0 .2-.1.3.1-.2.3-.3.4-.4s.1-.2.2-.2c0 0 .1-.1.1-.1l.2-.2s.1-.1.1-.1.1-.1.1-.1.1-.1.1-.1l5.9-25.9c1.3-5.8 8.8-9 16.6-7.2.5.1.9.2 1.4.4.6.2 1.2.4 1.8.6l.2-.9c-.5-.3-1.1-.5-1.7-.7zm0 0c-.4-.1-.9-.3-1.4-.4-7-1.6-13.8.6-16.6 5.1-.5.8-.9 1.8-1.1 2.8l-6.2 27.1c0 .1 0 .2-.1.3.1-.2.3-.3.4-.4s.1-.2.2-.2c0 0 .1-.1.1-.1l.2-.2s.1-.1.1-.1.1-.1.1-.1.1-.1.1-.1l5.9-25.9c1.3-5.8 8.8-9 16.6-7.2.5.1.9.2 1.4.4.6.2 1.2.4 1.8.6l.2-.9c-.5-.3-1.1-.5-1.7-.7zm12.3 11.4c0-.1 0-.1 0 0 0-.3-.1-.6-.1-.9-.1-.4-.2-.8-.3-1.2-.1-.2-.1-.3-.2-.5-.1-.3-.2-.5-.3-.8-1.1-2.4-3-4.6-5.6-6.3-.3-.2-.6-.4-.9-.5-.3-.2-.6-.3-.9-.5-.6-.3-1.3-.7-2-.9-.6-.2-1.2-.4-1.8-.6-.4-.1-.9-.3-1.4-.4-7-1.6-13.7.5-17 4.7-.3.4-.5.7-.8 1.1-.5.9-.9 1.8-1.1 2.8l-6.2 27.1c-.2.7-.3 1.5-.2 2.2v.8c0 .5.1.9.2 1.4.4 1.7 1.2 3.4 2.3 4.9 2.4 3.1 6.3 5.6 10.9 6.7 8.1 1.9 15.8-1.2 18.3-6.9 0-.1.1-.2.1-.3.2-.5.3-.9.4-1.4l6.2-27.1c.5-1.2.5-2.3.4-3.4zm-1.7 5.6c-.4.2-.7.4-1.1.5l-5.5 23.9c-.1.6-.3 1.1-.6 1.7 0 .1-.1.1-.1.2-.6 1.3-1.6 2.4-2.8 3.2-.5.4-1 .7-1.6 1-1.1.5-2.2 1-3.5 1.2-.5.1-.9.2-1.4.2-1.1.1-2.3.2-3.5.1-.5 0-.9-.1-1.4-.1-.6-.1-1.2-.2-1.7-.3s-1-.3-1.5-.4c-.4-.1-.9-.3-1.3-.5-1.1-.4-2.1-1-3.1-1.6-.4-.3-.8-.5-1.2-.8-1.1-.9-2.1-1.9-2.9-2.9-.3-.4-.6-.9-.8-1.3-.7-1.3-1.1-2.6-1.2-4 0-.1 0-.1 0-.2 0-.7 0-1.4.2-2l6.2-27.1c1.3-5.8 8.8-9 16.6-7.2.5.1.9.2 1.4.4l1.8.6c.7.3 1.4.6 2 1 .3.2.6.3.9.5s.6.4.8.6c1 .7 1.8 1.5 2.5 2.3.5.5.9 1.1 1.2 1.7 0 .1.1.1.1.2.3.5.5 1 .7 1.5.1.3.2.5.3.8.4.2.7.4 1.1.6.3.2.7.4 1 .6l-1.2 5.4c-.1 0-.2.1-.4.2zm-10.6-17c-.4-.1-.9-.3-1.4-.4-7-1.6-13.8.6-16.6 5.1-.5.8-.9 1.8-1.1 2.8l-6.2 27.1c0 .1 0 .2-.1.3.1-.2.3-.3.4-.4s.1-.2.2-.2c0 0 .1-.1.1-.1l.2-.2s.1-.1.1-.1.1-.1.1-.1.1-.1.1-.1l5.9-25.9c1.3-5.8 8.8-9 16.6-7.2.5.1.9.2 1.4.4.6.2 1.2.4 1.8.6l.2-.9c-.5-.3-1.1-.5-1.7-.7zm0 0c-.4-.1-.9-.3-1.4-.4-7-1.6-13.8.6-16.6 5.1-.5.8-.9 1.8-1.1 2.8l-6.2 27.1c0 .1 0 .2-.1.3.1-.2.3-.3.4-.4s.1-.2.2-.2c0 0 .1-.1.1-.1l.2-.2s.1-.1.1-.1.1-.1.1-.1.1-.1.1-.1l5.9-25.9c1.3-5.8 8.8-9 16.6-7.2.5.1.9.2 1.4.4.6.2 1.2.4 1.8.6l.2-.9c-.5-.3-1.1-.5-1.7-.7zm0 0c-.4-.1-.9-.3-1.4-.4-7-1.6-13.8.6-16.6 5.1-.5.8-.9 1.8-1.1 2.8l-6.2 27.1c0 .1 0 .2-.1.3.1-.2.3-.3.4-.4s.1-.2.2-.2c0 0 .1-.1.1-.1l.2-.2s.1-.1.1-.1.1-.1.1-.1.1-.1.1-.1l5.9-25.9c1.3-5.8 8.8-9 16.6-7.2.5.1.9.2 1.4.4.6.2 1.2.4 1.8.6l.2-.9c-.5-.3-1.1-.5-1.7-.7zm0 0c-.4-.1-.9-.3-1.4-.4-7-1.6-13.8.6-16.6 5.1-.5.8-.9 1.8-1.1 2.8l-6.2 27.1c0 .1 0 .2-.1.3.1-.2.3-.3.4-.4s.1-.2.2-.2c0 0 .1-.1.1-.1l.2-.2s.1-.1.1-.1.1-.1.1-.1.1-.1.1-.1l5.9-25.9c1.3-5.8 8.8-9 16.6-7.2.5.1.9.2 1.4.4.6.2 1.2.4 1.8.6l.2-.9c-.5-.3-1.1-.5-1.7-.7zm0 0c-.4-.1-.9-.3-1.4-.4-7-1.6-13.8.6-16.6 5.1-.5.8-.9 1.8-1.1 2.8l-6.2 27.1c0 .1 0 .2-.1.3.1-.2.3-.3.4-.4s.1-.2.2-.2c0 0 .1-.1.1-.1l.2-.2s.1-.1.1-.1.1-.1.1-.1.1-.1.1-.1l5.9-25.9c1.3-5.8 8.8-9 16.6-7.2.5.1.9.2 1.4.4.6.2 1.2.4 1.8.6l.2-.9c-.5-.3-1.1-.5-1.7-.7zm0 0c-.4-.1-.9-.3-1.4-.4-7-1.6-13.8.6-16.6 5.1-.5.8-.9 1.8-1.1 2.8l-6.2 27.1c0 .1 0 .2-.1.3.1-.2.3-.3.4-.4s.1-.2.2-.2c0 0 .1-.1.1-.1l.2-.2s.1-.1.1-.1.1-.1.1-.1.1-.1.1-.1l5.9-25.9c1.3-5.8 8.8-9 16.6-7.2.5.1.9.2 1.4.4.6.2 1.2.4 1.8.6l.2-.9c-.5-.3-1.1-.5-1.7-.7z" fill="#231f20"/><path d="m86.2 159.7c-.6 1.3-1.6 2.4-2.8 3.2l1.5-6.7c.5 1.1 1 2.3 1.3 3.5z" fill="#efefef"/><path d="m83.9 154.5-2.2 9.4c-1.1.5-2.2 1-3.5 1.2l3.1-13.6c1 1 1.9 2 2.6 3z" fill="#efefef"/><path d="m80.2 150.7-3.4 14.7c-1.1.1-2.3.2-3.5.1l3.8-16.6c1.1.5 2.2 1.1 3.1 1.8z" fill="#efefef"/><path d="m75.9 148.4-3.9 17c-.6-.1-1.2-.2-1.7-.3s-1-.3-1.5-.4l3.9-17c.5.1.9.1 1.4.2h.2c.1 0 .2 0 .3.1.4.1.8.2 1.3.4z" fill="#efefef"/><path d="m71.2 147.5-3.8 16.6c-1.1-.4-2.1-1-3.1-1.6l3.4-14.8c1.2-.1 2.4-.2 3.5-.2z" fill="#efefef"/><path d="m66.3 148.2-3.1 13.6c-1.1-.9-2.1-1.9-2.9-2.9l2.1-9c1.2-.7 2.5-1.3 3.9-1.7z" fill="#efefef"/><path d="m61 150.9-1.5 6.7c-.7-1.3-1.1-2.6-1.2-4 .7-1 1.7-2 2.7-2.7z" fill="#efefef"/><path d="m90.2 136.2-25-4.7-26.7-6.2-2.6-1.6-2.6-1.7-4.3-7.8 10.2-1.5 13.3 6.8 40.9 5.7 6.6 4.5z" fill="#fff"/><path d="m104.2 63.9c-.2-.1-.4-.2-.6-.3-.1-.1-.3-.1-.4-.2-.3-.1-.7-.3-1-.4-.6-.2-1.2-.4-1.8-.5l-43.2-9.9c-.6-.1-1.2-.2-1.8-.3-.4 0-.7-.1-1.1-.1-.1 0-.3 0-.4 0-.2 0-.4 0-.6 0-6.6.3-12.4 4.9-13.9 11.6l-10.1 44c-.2.9-.3 1.8-.4 2.7v1c0 .3 0 .7.1 1 0 .2 0 .3.1.5.1.6.2 1.3.4 1.9.4 1.6 1.1 3.2 2 4.6.1.1.2.3.3.4s.2.3.3.4c.2.2.3.4.5.6.2.3.5.6.8.9.6.6 1.2 1.1 1.9 1.6.1.1.3.2.4.3 1.5 1 3.2 1.8 5 2.2l43.2 9.9c1.8.4 3.7.5 5.5.2.2 0 .4-.1.6-.1.8-.1 1.5-.3 2.3-.6.4-.1.7-.3 1.1-.4.2-.1.5-.2.7-.3.1-.1.3-.1.4-.2.2-.1.4-.2.6-.3 1.4-.8 2.7-1.9 3.7-3.2.4-.5.8-1 1.1-1.6.1-.1.2-.3.2-.4.2-.3.3-.6.5-.9.1-.3.3-.6.4-.9.4-.8.6-1.7.8-2.6l10.1-44c1.4-6.8-1.9-13.5-7.7-16.6zm-73.8 50.6c.8-.2 1.6-.4 2.4-.6l-.9 4.1c-.7-1.1-1.2-2.2-1.5-3.5zm3.2 6c-.3-.3-.5-.6-.8-.9-.1-.1-.1-.2-.2-.3l1.3-5.5c.4 0 .7-.1 1.1-.1h1.2c.4 0 .8 0 1.2.1l-1.9 8.5c-.7-.6-1.4-1.2-1.9-1.8zm4.8-6.6c1.3.2 2.5.6 3.7 1.1l-2.2 9.5c-1.3-.4-2.5-.9-3.6-1.6zm2.6 10.9 2.1-9.3c1 .5 1.9 1.2 2.7 2l-1.8 8zm41.6 1.2c1.1-.4 2.3-.6 3.4-.7l-2.1 9.3-3.1-.7zm4.5-.7c1.3 0 2.6.2 3.8.6l-2.1 9c-1.3.2-2.6.2-3.9-.1zm5.2 8.7c-.7.3-1.5.5-2.3.7l1.9-8.4c.3.1.7.3 1 .4.4.2.7.4 1.1.6.3.2.7.4 1 .6l-1.2 5.4c-.1.1-.3.2-.4.2-.3.2-.7.3-1.1.5zm2.8-1.5.9-4c.6.4 1.2.9 1.8 1.5-.7.9-1.7 1.8-2.7 2.5z" fill="#809699"/><path d="m105.1 63.3c-.3-.2-.6-.3-.9-.5 0 0 0 0-.1 0-.3-.2-.7-.3-1-.4-.5-.2-1.1-.4-1.6-.6-.3-.1-.5-.1-.8-.2l-43.2-9.9c-.3-.1-.5-.1-.8-.2-.6-.1-1.2-.2-1.7-.2-.4 0-.7 0-1.1 0 0 0 0 0-.1 0-.3 0-.7 0-1 0-6.8.5-12.7 5.3-14.3 12.3l-10.1 44c-.2.9-.3 1.8-.4 2.6v1 1c.2 3.3 1.4 6.3 3.4 8.8.2.3.5.6.8.9s.5.5.8.8c2 1.9 4.5 3.2 7.3 3.9l43.2 9.9c2.8.7 5.7.5 8.3-.3.4-.1.7-.2 1.1-.4.4-.1.7-.3 1.1-.5 2.9-1.4 5.3-3.6 6.9-6.4.2-.3.3-.6.5-.9.1-.3.3-.6.4-.9.3-.8.6-1.7.8-2.5l10.1-44c1.6-7-1.7-13.9-7.6-17.3zm-5.6 64.3c-.2.3-.3.6-.5.8-.3.5-.7 1.1-1.1 1.5-.8 1-1.7 1.8-2.7 2.5-.2.1-.4.3-.6.4s-.5.3-.7.4c-.1.1-.3.2-.4.2-.4.2-.7.4-1.1.5-.7.3-1.5.5-2.3.7-.4.1-.8.1-1.1.2-1.3.2-2.6.2-3.9-.1-.3 0-.6-.1-1-.2l-43.2-9.9c-.3-.1-.6-.1-.9-.2-1.3-.4-2.5-.9-3.6-1.6-.3-.2-.6-.4-.9-.7-.7-.5-1.3-1.1-1.8-1.7-.3-.3-.5-.6-.8-.9-.1-.1-.1-.2-.2-.3-.2-.3-.4-.5-.5-.8-.1-.2-.2-.3-.3-.5-.6-1.1-1.1-2.3-1.4-3.5-.2-.6-.3-1.3-.3-1.9 0-.3-.1-.6-.1-1 0-.3 0-.6 0-1 0-.9.1-1.8.3-2.7l10.1-44c1.5-6.4 7.1-10.8 13.4-10.8h.3.6c.3 0 .7.1 1 .1.4.1.8.1 1.2.2l43.2 9.9 1.2.3c.3.1.7.2 1 .4.2.1.4.2.6.2h.1c.1 0 .2.1.3.1 5.6 2.8 8.8 9.2 7.4 15.6l-10.1 44c-.2.9-.5 1.7-.8 2.5-.2.7-.3 1-.4 1.3z" fill="#231f20"/><path d="m97.8 130c-.8 1-1.7 1.8-2.7 2.5l.9-4c.6.4 1.3.9 1.8 1.5z" fill="#efefef"/><path d="m94.1 127.2c-.4-.2-.7-.4-1.1-.6-.3-.1-.7-.3-1-.4l-1.9 8.4c.8-.2 1.6-.4 2.3-.7.4-.1.7-.3 1.1-.5.1-.1.3-.1.4-.2l1.2-5.4c-.4-.2-.7-.4-1-.6z" fill="#efefef"/><path d="m90.9 125.9-2.1 9c-1.3.2-2.6.2-3.9-.1l2.2-9.5c1.3 0 2.6.2 3.8.6z" fill="#efefef"/><path d="m86 125.3-2.1 9.3-3.1-.7 1.8-7.9c1.1-.4 2.3-.6 3.4-.7z" fill="#efefef"/><path d="m31.8 118c-.6-1.1-1.1-2.3-1.4-3.5.8-.2 1.6-.4 2.4-.6" fill="#efefef"/><path d="m57.8 54.7c-.6-.1-1.1-.2-1.7-.3-.3 0-.7-.1-1-.1-.1 0-.3 0-.4 0-.2 0-.4 0-.6 0-6 .2-11.4 4.5-12.8 10.7l-10.9 47.6c.6-.2 2.4-.6 3.8-.7 0 0 .1 0 .1-.1l10.5-46c1.4-6.2 6.8-10.4 12.8-10.7h.6.4c.3 0 .7 0 1 .1.6.1 1.1.2 1.7.3z" fill="#efefef"/><path d="m99.2 64.2c.6.1 1.1.3 1.6.5.3.1.6.2.9.4.1.1.2.1.4.2s.4.2.5.3c5.3 2.9 8.3 9 6.9 15.2l-10.9 47.6c-.5-.4-1.9-1.6-3.1-2.3 0 0-.1-.1-.1-.1l10.5-46c1.4-6.2-1.6-12.4-6.9-15.2-.2-.1-.3-.2-.5-.3-.1-.1-.2-.1-.4-.2-.3-.1-.6-.3-.9-.4-.5-.2-1.1-.4-1.6-.5z" fill="#efefef"/><path d="m74.8 75.5c-15.3-3.5-24.9-18.8-21.4-34.1 3.6-15.3 18.9-24.9 34.2-21.4s24.9 18.8 21.4 34.1c-3.6 15.3-18.9 24.9-34.2 21.4z" fill="#809699"/><path d="m87.3 20.9c14.8 3.4 24.1 18.2 20.7 33s-18.2 24.1-33 20.7-24.1-18.2-20.7-33c3.5-14.8 18.2-24.1 33-20.7m.5-1.9c-7.7-1.8-15.5-.4-22.2 3.7-6.7 4.3-11.3 10.8-13.1 18.4-1.8 7.7-.4 15.5 3.8 22.2s10.7 11.3 18.4 13c7.7 1.8 15.5.4 22.2-3.7 6.7-4.2 11.3-10.7 13.1-18.4s.4-15.5-3.7-22.2c-4.4-6.6-10.9-11.2-18.5-13z" fill="#231f20"/><path d="m85.8 23c1 .2 2 .5 3 .9-1.5-.7-3.1-1.3-4.8-1.7-9.8-2.2-19.4 2.2-23.9 10.3 5.5-7.8 15.5-11.8 25.7-9.5z" fill="#efefef"/><path d="m77.5 63.6c-14.4-3.3-24.4-13.4-22.3-22.5s15.5-13.8 29.9-10.5c14.4 3.4 24.4 13.4 22.3 22.5s-15.5 13.8-29.9 10.5z" fill="#c6cdd1"/><path d="m84.9 31.4c6.9 1.6 13 4.8 17.1 9 4 4 5.6 8.5 4.7 12.6s-4.4 7.4-9.7 9.3c-5.5 2-12.4 2.2-19.3.6s-13-4.8-17.1-9c-4-4-5.6-8.5-4.7-12.6s4.4-7.4 9.7-9.3c5.6-2 12.5-2.2 19.3-.6m.4-1.5c-14.8-3.4-28.6 1.5-30.8 11s8.1 19.9 22.9 23.3 28.6-1.5 30.8-11c2.1-9.4-8.1-19.9-22.9-23.3z" fill="#231f20"/><path d="m88.3 33.2c-1.1-.4-2.3-.7-3.6-1-13-3-25.1 1.4-27.1 9.7-1.7 7.3 5 15.2 15.4 19.1 2-11 6-22.2 15.3-27.8z" fill="#efefef"/><path d="m103.6 63.7c-6.7 8.4-17.6 12.3-28.1 10s-18.8-10.4-21.4-20.9c1 11.6 9.4 21.2 20.7 23.7 11.4 2.4 23-2.7 28.8-12.8z" fill="#231f20"/><path d="m29 106h40.5v1.9h-40.5z" fill="#231f20" transform="matrix(.2236 -.9747 .9747 .2236 -65.9652 131.0012)"/><path d="m63.9 114h40.5v1.9h-40.5z" fill="#231f20" transform="matrix(.2236 -.9747 .9747 .2236 -46.6604 171.2513)"/><path d="m57.7 152.8-.5.1h-.2l-.3.1-.5.1-.4.1c0-.1 0-.2-.1-.3-.3-1.2-.7-2.4-1.3-3.5-.2-.5-.5-1-.8-1.4-.8-1.2-1.7-2.4-2.8-3.3-.4-.3-.7-.6-1.1-.9-.9-.7-1.9-1.3-3-1.8-.4-.2-.9-.4-1.3-.5-.5-.2-1.1-.3-1.7-.5h-.1c-.5-.1-1-.2-1.5-.3s-.9-.1-1.4-.1c-1.2 0-2.3 0-3.5.2-.5.1-1 .2-1.4.3-1.2.3-2.4.8-3.6 1.5-.6.3-1.1.7-1.6 1.1-1 .8-2 1.6-2.8 2.7-.2.2-.3.4-.5.6l-.5-.5-.9-.8c.4-.5.7-.9 1.1-1.3s.8-.9 1.3-1.2c4.2-3.7 10-5.2 15.7-4h.1c5.7 1.3 10.4 5.4 12.6 10.7.1.3.3.7.4 1 0 .1 0 .1.1.2 0 .1.1.3.1.4v.1c.2.4.3.8.4 1.2z" fill="#231f20"/><path d="m47.6 116.5-1.4 1.3c-.1-.1-.2-.2-.4-.4-.8-.8-1.8-1.5-2.7-2-.3-.2-.6-.4-1-.5-1.2-.5-2.4-.9-3.7-1.1-.3-.1-.7-.1-1.1-.1s-.8-.1-1.2-.1-.8 0-1.2 0-.7.1-1.1.1h-.1c-.3 0-.7.1-1 .2-.8.1-1.6.3-2.4.6-.3.1-.6.2-.9.3-.1 0-.2.1-.4.1l-.6-1.8c.2-.1.4-.2.6-.2.3-.1.6-.2.9-.3.9-.3 1.9-.5 2.8-.6s1.7-.2 2.6-.2h1.4c.5 0 1 .1 1.4.1.2 0 .3 0 .5.1.9.2 1.9.4 2.8.7 1.7.6 3.3 1.5 4.8 2.7.5.3 1 .7 1.4 1.1z" fill="#231f20"/><path d="m88.3 159.7h-.1l-.3.1-.8.3-.6.2c0-.1 0-.1 0-.2 0-.2-.1-.4-.1-.6-.3-1.2-.8-2.4-1.3-3.5-.3-.6-.6-1.1-1-1.7-.7-1.1-1.6-2-2.6-2.9-.4-.3-.8-.6-1.2-.9-.9-.7-2-1.3-3-1.8-.4-.2-.9-.4-1.3-.5-.5-.2-.9-.3-1.4-.4h-.1-.2c-.1 0-.1 0-.2 0-.5-.1-.9-.2-1.4-.2-.5-.1-.9-.1-1.4-.1-1.2 0-2.4.1-3.5.3-.5.1-1 .2-1.4.4-1.4.4-2.7 1-4 1.8-.5.3-.9.6-1.4.9-1 .8-1.9 1.7-2.7 2.7 0 .1-.1.1-.1.2l-.1-.1-.3-.3-.4-.3-.2-.1-.2-.2-.3-.2c.2-.3.5-.6.8-.9s0 0 0-.1c.4-.4.8-.8 1.2-1.2 4.2-3.9 10.1-5.5 15.8-4.3h.2.2.1c5.6 1.3 10.1 5.1 12.3 10.2.2.5.4 1.1.6 1.6.1.6.2 1.2.4 1.8z" fill="#231f20"/><path d="m100.2 129.6-1.4 1.3c-.1-.1-.2-.2-.3-.3-.2-.2-.5-.4-.7-.7-.6-.5-1.2-1-1.8-1.5-.3-.2-.6-.4-.9-.6s-.7-.4-1-.6c-.4-.2-.7-.4-1.1-.6-.3-.1-.7-.3-1-.4s-.7-.2-1-.3c-1.3-.4-2.5-.6-3.8-.6-.4 0-.7 0-1.1 0-1.2.1-2.3.3-3.4.7-.1 0-.3.1-.4.1l-.6-1.8c.5-.2 1-.3 1.5-.5 1.8-.5 3.7-.6 5.5-.4.9.1 1.8.3 2.8.5.2 0 .3.1.5.2.5.1.9.3 1.4.5.4.2.9.4 1.3.6.8.4 1.6.9 2.3 1.4s1.4 1.1 2.1 1.7c.2.2.5.4.7.6.1.3.3.5.4.7z" fill="#231f20"/><path d="m85.1 10.6c.7-3 3.7-4.9 6.7-4.2.7.2 1.4.5 2 .9-.7-.7-1.6-1.3-2.6-1.5-2.8-.6-5.5 1.1-6.2 3.9-.1.7-.2 1.3-.1 1.9.1-.4.1-.7.2-1z" fill="#efefef"/><g fill="#231f20"><path d="m39.3 62.6 10.9 3v.2l-11.2-2z"/><path d="m36.4 75.4 10.9 3v.2l-11.2-2.1z"/><path d="m33.5 88.1 10.9 3v.2l-11.2-2.1z"/><path d="m30.6 100.8 10.9 3v.2l-11.2-2z"/><path d="m32.6 122.2 14.1 3.8v.2l-14.4-2.7z"/><path d="m31.4 127.5 14.1 3.8v.2l-14.4-2.7z"/><path d="m30.2 132.8 14.1 3.8-.1.3-14.3-2.8z"/><path d="m93.6 137.5-14.1-3.8.1-.2 14.3 2.7z"/><path d="m92.4 142.8-14.1-3.8.1-.2 14.3 2.7z"/><path d="m91.2 148.1-14.1-3.7v-.3l14.4 2.7z"/><path d="m111.8 80.4-11-3 .1-.2 11.1 2.1z"/><path d="m108.9 93.1-11-3 .1-.2 11.1 2.1z"/><path d="m106 105.9-11-3 .1-.2 11.1 2z"/><path d="m103.1 118.6-11-3 .1-.2 11.1 2z"/></g><path d="m51 46.2s-1.1 0-2.8-.1c-.4 0-.9-.1-1.3-.1-.2 0-.5-.1-.7-.1h.1-.1-.2-.4c-.3 0-.4 0-.6.1-.2 0-.4.1-.6.1h-.4c-.1 0-.2.1-.3.2l-.3.2h-.1s-.1.1.1 0l-.2.1-.3.2-.2.2-.1.1c-.1.2-.3.3-.4.5s-.2.4-.3.6-.2.4-.2.6c-.2.5-.3 1-.4 1.4-.1.5-.3.9-.4 1.3-.5 1.6-1.1 2.6-1.1 2.6h-.2s0-1.1.2-2.8c0-.4.1-.9.2-1.3.1-.5.1-.9.2-1.5.1-.3.2-.6.3-.9s.3-.6.4-.8c.2-.3.4-.5.6-.8.1-.1.2-.3.3-.3l.3-.3.2-.1.2-.1.1-.1.4-.2c.1-.1.3-.1.4-.2l.5-.1c.3-.1.6-.2 1-.1h.9l.4.1h.2.1.1c.2.1.5.2.7.2.4.1.9.3 1.3.4 1.4.5 2.4 1 2.4 1z" fill="#efefef"/><path d="m108.9 59.4s1.1 0 2.8.1c.4 0 .9.1 1.3.1.2 0 .5.1.7.1h.1.1.2l.4.1c.2 0 .5.2.8.4.1.1.3.2.4.2l.4.3c.2.2.5.4.7.7s.4.5.5.8c.3.6.5 1.2.6 1.8v.9c-.1.3-.1.6-.1.9-.1.5-.3 1-.4 1.4-.1.5-.3.9-.4 1.3-.5 1.6-1.1 2.6-1.1 2.6h-.2s0-1.1.2-2.8c0-.4.1-.9.2-1.3.1-.5.1-.9.2-1.5 0-.2 0-.4 0-.6s-.1-.4-.1-.6c-.1-.4-.2-.9-.4-1.2-.1-.2-.2-.4-.4-.6-.1-.2-.3-.3-.4-.5l-.2-.2-.2-.2c-.2-.1-.3-.2-.5-.3l-.4-.1-.2-.1h-.1c-.1 0 .1 0 .1 0-.2-.1-.5-.2-.7-.2-.4-.1-.9-.3-1.3-.4-1.6-.5-2.6-1.1-2.6-1.1z" fill="#efefef"/><path d="m82.3 97.7c-.2.7-.6 1.3-1.2 1.7s-1.3.5-2 .3l-18.6-4.3c-1.4-.3-2.4-1.8-2-3.2l2.5-11c.2-.7.6-1.3 1.2-1.7s1.3-.5 2-.3l18.6 4.3c1.4.3 2.4 1.8 2 3.2z" fill="#c6cdd1"/><path d="m82.6 97.8s0 .1-.1.2c0 .1-.1.3-.3.6-.4.5-1 1.3-2.2 1.4-.3 0-.6 0-.9-.1s-.6-.1-.9-.2c-.6-.2-1.3-.3-2-.5-1.4-.3-3.1-.7-4.8-1.1-1.8-.4-3.7-.8-5.7-1.3-1-.2-2.1-.4-3.1-.7-.5-.1-1.1-.2-1.6-.4l-.4-.1-.4-.1c-.3-.1-.6-.3-.8-.5-.5-.4-.9-1-1-1.6-.2-.6 0-1.3.1-1.9.2-1.1.5-2.3.8-3.5.5-2.4 1-4.7 1.5-7.1l.1-.4c0-.1.2-.3.3-.5s.2-.3.3-.4.2-.3.4-.4l.2-.2h.1-.2l.1-.1c.1-.1.2-.1.4-.2s.4-.1.6-.2h.5c.8 0 1.3.2 1.9.3s1.2.3 1.8.4l6.9 1.5c2.2.5 4.4 1 6.4 1.5.5.1 1 .2 1.5.4.2.1.5.1.7.2.4.1.5.2.8.3 1.2.6 1.8 1.6 1.8 2.7v.8c0 .3-.1.4-.1.7-.1.4-.2.8-.3 1.2-.2.8-.4 1.6-.6 2.3-.4 1.4-.7 2.7-.9 3.7zm-.6-.2c0-.1.3-1.3.7-3.3.2-1 .5-2.3.8-3.8.2-.7.3-1.5.5-2.3.1-.4.2-.8.3-1.2.1-.5.2-.8.1-1.2 0-.4-.2-.7-.4-1.1-.2-.3-.6-.6-.8-.7s-.5-.2-.7-.2c-.2-.1-.5-.1-.7-.2-.5-.1-1-.2-1.5-.3-2-.5-4.2-.9-6.4-1.4s-4.5-1.1-6.8-1.6c-.6-.1-1.2-.3-1.8-.4s-1.2-.3-1.7-.3h-.4l-.3.1c-.1 0-.3.1-.4.2h-.1l-.1.1c-.1.1-.2.1-.3.2s-.2.2-.2.3c-.1.1-.1.2-.2.3l-.2.4c-.6 2.3-1.1 4.7-1.7 7-.3 1.2-.6 2.3-.8 3.5-.2.6-.2 1.1-.1 1.6s.4 1 .8 1.3c.1.1.2.2.3.2.1.1.2.1.3.2l.4.1.4.1c.5.1 1.1.3 1.6.4 1.1.3 2.1.5 3.1.8 2 .5 3.9 1 5.7 1.4s3.4.8 4.9 1.1c.7.2 1.4.3 2 .4.3.1.6.1.9.2.3 0 .5.1.8 0 .2 0 .4-.1.6-.2.1-.1.2-.1.3-.2 0 0 .1-.1.1-.1l.1-.1c.1-.1.3-.2.4-.3s.2-.2.2-.3c.1-.1.1-.2.2-.3 0-.1.1-.2.1-.3z" fill="#231f20"/><ellipse cx="79.9" cy="87.4" fill="#efefef" rx="2.1" ry="2.1" transform="matrix(.2226 -.9749 .9749 .2226 -23.1598 145.8426)"/><ellipse cx="75.3" cy="91.9" fill="#efefef" rx="1.1" ry="1.1" transform="matrix(.2225 -.9749 .9749 .2225 -31.0304 144.8521)"/><ellipse cx="77.1" cy="94.3" fill="#efefef" rx="1.1" ry="1.1" transform="matrix(.2232 -.9748 .9748 .2232 -32.0332 148.3654)"/><path d="m73.9 84.9c-.2.7-.8 1.1-1.5 1l-9-2.1c-.7-.2-1.1-.8-1-1.5.2-.7.8-1.1 1.5-1l9 2.1c.8.1 1.2.8 1 1.5z" fill="#efefef"/><path d="m67.1 92.2c-.2.7-.8 1.1-1.5 1l-4.1-.9c-.7-.2-1.1-.8-1-1.5.2-.7.8-1.1 1.5-1l4.1.9c.8.2 1.2.8 1 1.5z" fill="#efefef"/><text transform="translate(146.333 119.1827)"><tspan fill="#231f20" font-family="'Avenir-Book'" font-size="83.8642" x="0" y="0">Gravity</tspan><tspan fill="#3a3738" font-family="'Avenir-Heavy'" font-size="83.8642" letter-spacing="-2" x="265.4" y="0">V</tspan><tspan fill="#3a3738" font-family="'Avenir-Heavy'" font-size="83.8642" x="318.8" y="0">iew</tspan></text><path d="m63.8 19.8h37.2v55.8h-37.2z" fill="none" transform="matrix(.2255 -.9742 .9742 .2255 17.3207 117.2383)"/></svg>