<svg viewBox="0 0 590.84 175.99" xmlns="http://www.w3.org/2000/svg"><path d="m114 179.37c0-.9-23.12-1.63-51.62-1.63s-51.62.73-51.62 1.63 23.14 1.63 51.65 1.63 51.59-.74 51.59-1.63z" fill="#809699" opacity=".4" transform="translate(-10.79 -5)"/><path d="m88.16 159.81-.3.06-.76.16-.69.14h-.11c0-.16-.07-.33-.11-.49a16.29 16.29 0 0 0 -2.3-5.19 16.44 16.44 0 0 0 -2.54-2.92c-.37-.33-.75-.64-1.15-.94a15.54 15.54 0 0 0 -3-1.78q-.63-.28-1.29-.51t-1.42-.34l-.29-.07h-.15c-.47-.1-.94-.18-1.42-.24s-.92-.1-1.39-.12a16.28 16.28 0 0 0 -3.49.26q-.72.13-1.44.33a16.24 16.24 0 0 0 -4 1.72 15 15 0 0 0 -1.34.91 16.07 16.07 0 0 0 -2.79 2.68l-.21.27-.13.17-.29-.22-.32-.25-.45-.34-.46-.35c.33-.43.67-.85 1-1.25a0 0 0 0 1 0 0l.42-.43.22-.23.14-.14.19-.18.1-.09.1-.09.09-.08a18 18 0 0 1 15.86-4.26l.19.05.32.07a18 18 0 0 1 12.2 10.47c.22.53.42 1.09.6 1.65s.29 1 .4 1.55a.06.06 0 0 0 .01.02z" fill="#303c42" transform="translate(-10.79 -5)"/><path d="m34.85 148.99h18.81v1.38h-18.81z" fill="#231f20" transform="matrix(.22359036 -.97468321 .97468321 .22359036 -122.32 154.36)"/><path d="m39.97 150.74h17.44v1.33h-17.44z" fill="#231f20" transform="matrix(.22342024 -.97472221 .97472221 .22342024 -120.56 160.03)"/><path d="m44.33 141.86-2.6 11.34-1.08-.25 2.6-11.34z" fill="#231f20"/><path d="m28.89 56.52 12.78-46.02.3.07-8.47 47z" fill="#231f20"/><path d="m54 16.87a1.69 1.69 0 1 1 -1.27-2 1.69 1.69 0 0 1 1.27 2z" fill="#231f20" transform="translate(-10.79 -5)"/><path d="m29.43 70.5 12.78-46.02.3.07-8.48 47.01z" fill="#231f20"/><path d="m54.58 30.85a1.69 1.69 0 1 1 -1.27-2 1.69 1.69 0 0 1 1.27 2z" fill="#231f20" transform="translate(-10.79 -5)"/><path d="m108.32 115.16a6.13 6.13 0 0 1 -7.34 4.61l-68.98-15.77a6.12 6.12 0 0 1 -4.61-7.34l11.27-49.28a6.13 6.13 0 0 1 7.34-4.61l69 15.76a6.13 6.13 0 0 1 4.61 7.34z" fill="#809699" stroke="#231f20" stroke-miterlimit="10" stroke-width="1.7703" transform="translate(-10.79 -5)"/><path d="m84.17 17.19h7.47v2.55h-7.47z" fill="#231f20" transform="matrix(.22325012 -.97476119 .97476119 .22325012 39.5 95.02)"/><path d="m95 11.61a5.4 5.4 0 1 1 -4-6.47 5.4 5.4 0 0 1 4 6.47z" fill="#231f20" transform="translate(-10.79 -5)"/><path d="m63.86 121a11.38 11.38 0 0 0 -2.76-6 18.4 18.4 0 0 0 -10-5.79c-.46-.1-.93-.2-1.39-.27-.64-.1-1.28-.17-1.91-.21a20.43 20.43 0 0 0 -2.21 0l-1 .08-1 .13a15.15 15.15 0 0 0 -5.85 2.19c-.33.22-.65.44-1 .68l-.38.32a9 9 0 0 0 -1 1 6.32 6.32 0 0 0 -.52.64h1.25s.78 0 1.16.06l-1.94 8.48a13 13 0 0 1 -1.85-1.7c-.27-.3-.52-.6-.77-.93l-5.65 24.66a8.76 8.76 0 0 0 -.21 2.15.25.25 0 0 1 0 .08 10.48 10.48 0 0 0 1.98 5.43c.11.17.22.33.34.49s.4.53.62.79a15.75 15.75 0 0 0 2.76 2.56c.38.27.77.54 1.18.79a20.27 20.27 0 0 0 12.45 2.86c.48 0 1-.11 1.41-.19a15.74 15.74 0 0 0 3.85-1.3l.13-.06a12.73 12.73 0 0 0 1.16-.62 11 11 0 0 0 3.62-3.47c.18-.28.33-.57.48-.86l.1-.2a9.63 9.63 0 0 0 .43-1.17 1.33 1.33 0 0 0 0-.19.14.14 0 0 0 0-.06c0-.09.05-.18.07-.27l6.28-27.1a8.81 8.81 0 0 0 .17-3zm-18-3.54-1.82 8-3-.7 2.14-9.3a13.87 13.87 0 0 1 2.65 2.04zm-7.4-3.64a14 14 0 0 1 3.66 1.18l-2.19 9.54a13.93 13.93 0 0 1 -3.56-1.64zm-10.55 32.46a16.3 16.3 0 0 1 2.8-2.65l-1.6 7a9.12 9.12 0 0 1 -1.2-4.35zm2.23 5.9 2.2-9.6a16.53 16.53 0 0 1 3.56-1.48l-3.14 13.67a14.62 14.62 0 0 1 -2.62-2.59zm7.2-11.41a15.61 15.61 0 0 1 3.49-.25l-3.83 16.66a19.38 19.38 0 0 1 -3.08-1.58zm1 16.87 3.91-17c.5.06 1 .15 1.49.26h.08a15.76 15.76 0 0 1 1.66.48l-3.9 17c-.53-.08-1.08-.18-1.62-.3s-1.12-.27-1.65-.44zm4.63.9 3.81-16.64a16.38 16.38 0 0 1 3 1.78l-3.39 14.78a18.8 18.8 0 0 1 -3.45.08zm4.86-.31 3.12-13.6a16 16 0 0 1 2.78 3.37l-2 8.89a14 14 0 0 1 -3.93 1.34zm5.17-2.23 1.52-6.62a15.79 15.79 0 0 1 1.26 3.51 9.35 9.35 0 0 1 -2.78 3.11z" fill="#809699" transform="translate(-10.79 -5)"/><path d="m57.41 151.45s0 0 0-.06l.06-.25 6.22-27.14a8.81 8.81 0 0 0 .17-3 11.38 11.38 0 0 0 -2.76-6 18.4 18.4 0 0 0 -10-5.79c-.46-.1-.93-.2-1.39-.27-.64-.1-1.28-.17-1.91-.21l-.21.94c.63 0 1.27.11 1.91.21.46.07.92.16 1.38.26 7.85 1.8 13.15 7.94 11.83 13.7l-5.95 26c.13.34.26.69.38 1 0 .07.05.14.07.21s.09.27.12.4 0 0 0 0a0 0 0 0 0 .08 0zm0-.06.06-.25 6.22-27.14a8.81 8.81 0 0 0 .17-3 11.38 11.38 0 0 0 -2.76-6 18.4 18.4 0 0 0 -10-5.79c-.46-.1-.93-.2-1.39-.27-.64-.1-1.28-.17-1.91-.21l-.21.94c.63 0 1.27.11 1.91.21.46.07.92.16 1.38.26 7.85 1.8 13.15 7.94 11.83 13.7l-5.95 26c.13.34.26.69.38 1 0 .07.05.14.07.21s.09.27.12.4 0 0 0 0 .09-.04.09-.06zm6.45-30.39a11.38 11.38 0 0 0 -2.76-6 18.4 18.4 0 0 0 -10-5.79c-.46-.1-.93-.2-1.39-.27-.64-.1-1.28-.17-1.91-.21l-.21.94c.63 0 1.27.11 1.91.21.46.07.92.16 1.38.26 7.85 1.8 13.15 7.94 11.83 13.7l-1.71 7.51.93.21 1.76-7.56a8.81 8.81 0 0 0 .17-3zm0 0a11.38 11.38 0 0 0 -2.76-6 18.4 18.4 0 0 0 -10-5.79c-.46-.1-.93-.2-1.39-.27-.64-.1-1.28-.17-1.91-.21l-.21.94c.63 0 1.27.11 1.91.21.46.07.92.16 1.38.26 7.85 1.8 13.15 7.94 11.83 13.7l-1.71 7.51.93.21 1.76-7.56a8.81 8.81 0 0 0 .17-3zm0 0a11.38 11.38 0 0 0 -2.76-6 18.4 18.4 0 0 0 -10-5.79c-.46-.1-.93-.2-1.39-.27-.64-.1-1.28-.17-1.91-.21l-.21.94c.63 0 1.27.11 1.91.21.46.07.92.16 1.38.26 7.85 1.8 13.15 7.94 11.83 13.7l-1.71 7.51.93.21 1.76-7.56a8.81 8.81 0 0 0 .17-3zm0 0a11.38 11.38 0 0 0 -2.76-6 18.4 18.4 0 0 0 -10-5.79c-.46-.1-.93-.2-1.39-.27-.64-.1-1.28-.17-1.91-.21l-.21.94c.63 0 1.27.11 1.91.21.46.07.92.16 1.38.26 7.85 1.8 13.15 7.94 11.83 13.7l-1.71 7.51.93.21 1.76-7.56a8.81 8.81 0 0 0 .17-3zm1 .22a12.74 12.74 0 0 0 -.2-1.36c-1.13-5.27-6.3-10.05-13.28-11.65q-.69-.16-1.38-.27c-.64-.1-1.28-.18-1.91-.23s-1.49-.06-2.22 0c-.33 0-.66 0-1 .07s-.67.06-1 .11a15.68 15.68 0 0 0 -7.75 3.24c-.24.2-.48.4-.7.61s-.22.23-.34.34a12.17 12.17 0 0 0 -.8 1c-.12.15-.24.32-.35.48s-.13.2-.19.3a9.61 9.61 0 0 0 -1.27 3l-6.23 27.14a10.15 10.15 0 0 0 -.23 1.63v.16c-.25 6.21 5.4 12.34 13.49 14.2a19.06 19.06 0 0 0 12.78-1.28l.15-.08a12.42 12.42 0 0 0 4.1-3.34 11.45 11.45 0 0 0 .78-1.14l.27-.5a1.24 1.24 0 0 0 .1-.2 9.59 9.59 0 0 0 .73-2.07l6.21-27.1a9.68 9.68 0 0 0 .22-3.02zm-31-7.46c.37 0 .73-.08 1.1-.1s.83 0 1.25 0c.19-.22.39-.43.61-.64a11.57 11.57 0 0 1 1.27-1l.18-.12a12.89 12.89 0 0 1 1.84-1 14.83 14.83 0 0 1 3.29-1c.33-.06.67-.11 1-.15s.67-.08 1-.1a18.41 18.41 0 0 1 2.23 0c.63 0 1.27.11 1.91.21.46.07.92.16 1.38.26 7.85 1.8 13.15 7.94 11.83 13.7l-6.21 27.11a8 8 0 0 1 -.75 2 9.35 9.35 0 0 1 -2.79 3.07 11.06 11.06 0 0 1 -1.33.83 14 14 0 0 1 -3.89 1.39c-.46.1-.93.17-1.41.23a18.8 18.8 0 0 1 -3.45.08c-.46 0-.92-.08-1.39-.15s-1.08-.18-1.62-.3-1.09-.28-1.62-.45-.88-.3-1.3-.46a19.38 19.38 0 0 1 -3.08-1.58c-.41-.26-.79-.54-1.17-.83a14.62 14.62 0 0 1 -2.62-2.59 12 12 0 0 1 -1-1.56 9.12 9.12 0 0 1 -1.2-4.34 8.09 8.09 0 0 1 .19-1.89l5.48-23.88c-.27-.3-.52-.6-.77-.93l-.21-.29zm30 7.24a11.38 11.38 0 0 0 -2.76-6 18.4 18.4 0 0 0 -10-5.79c-.46-.1-.93-.2-1.39-.27-.64-.1-1.28-.17-1.91-.21l-.21.94c.63 0 1.27.11 1.91.21.46.07.92.16 1.38.26 7.85 1.8 13.15 7.94 11.83 13.7l-1.71 7.51.93.21 1.76-7.56a8.81 8.81 0 0 0 .17-3zm0 0a11.38 11.38 0 0 0 -2.76-6 18.4 18.4 0 0 0 -10-5.79c-.46-.1-.93-.2-1.39-.27-.64-.1-1.28-.17-1.91-.21l-.21.94c.63 0 1.27.11 1.91.21.46.07.92.16 1.38.26 7.85 1.8 13.15 7.94 11.83 13.7l-1.71 7.51.93.21 1.76-7.56a8.81 8.81 0 0 0 .17-3zm0 0a11.38 11.38 0 0 0 -2.76-6 18.4 18.4 0 0 0 -10-5.79c-.46-.1-.93-.2-1.39-.27-.64-.1-1.28-.17-1.91-.21l-.21.94c.63 0 1.27.11 1.91.21.46.07.92.16 1.38.26 7.85 1.8 13.15 7.94 11.83 13.7l-1.71 7.51.93.21 1.76-7.56a8.81 8.81 0 0 0 .17-3zm-6.44 30.35.06-.25 6.21-27.1a8.81 8.81 0 0 0 .17-3 11.38 11.38 0 0 0 -2.76-6 18.4 18.4 0 0 0 -10-5.79c-.46-.1-.93-.2-1.39-.27-.64-.1-1.28-.17-1.91-.21l-.21.94c.63 0 1.27.11 1.91.21.46.07.92.16 1.38.26 7.85 1.8 13.15 7.94 11.83 13.7l-5.95 26c.13.34.26.69.38 1 0 .07.05.14.07.21s.09.27.12.4 0 0 0 0 .09-.04.09-.06zm0 .06s0 0 0-.06l.06-.25 6.21-27.1a8.81 8.81 0 0 0 .17-3 11.38 11.38 0 0 0 -2.76-6 18.4 18.4 0 0 0 -10-5.79c-.46-.1-.93-.2-1.39-.27-.64-.1-1.28-.17-1.91-.21l-.21.94c.63 0 1.27.11 1.91.21.46.07.92.16 1.38.26 7.85 1.8 13.15 7.94 11.83 13.7l-5.95 26c.13.34.26.69.38 1 0 .07.05.14.07.21s.09.27.12.4 0 0 0 0a0 0 0 0 0 .08 0zm0 0s0 0 0-.06l.06-.25 6.21-27.1a8.81 8.81 0 0 0 .17-3 11.38 11.38 0 0 0 -2.76-6 18.4 18.4 0 0 0 -10-5.79c-.46-.1-.93-.2-1.39-.27-.64-.1-1.28-.17-1.91-.21l-.21.94c.63 0 1.27.11 1.91.21.46.07.92.16 1.38.26 7.85 1.8 13.15 7.94 11.83 13.7l-5.95 26c.13.34.26.69.38 1 0 .07.05.14.07.21s.09.27.12.4 0 0 0 0a0 0 0 0 0 .08 0z" fill="#231f20" transform="translate(-10.79 -5)"/><path d="m55.8 152.9a9.35 9.35 0 0 1 -2.8 3.1l1.52-6.62a15.79 15.79 0 0 1 1.28 3.52z" fill="#efefef" transform="translate(-10.79 -5)"/><path d="m53.73 148-2 8.89a14 14 0 0 1 -3.89 1.39l3.12-13.6a16 16 0 0 1 2.77 3.32z" fill="#efefef" transform="translate(-10.79 -5)"/><path d="m49.78 143.68-3.39 14.78a18.8 18.8 0 0 1 -3.45.08l3.81-16.64a16.38 16.38 0 0 1 3.03 1.78z" fill="#efefef" transform="translate(-10.79 -5)"/><path d="m45.45 141.39-3.9 17c-.53-.08-1.08-.18-1.62-.3s-1.09-.28-1.62-.45l3.91-17c.5.06 1 .15 1.49.26h.08a15.76 15.76 0 0 1 1.66.49z" fill="#efefef" transform="translate(-10.79 -5)"/><path d="m40.83 140.52-3.83 16.66a19.38 19.38 0 0 1 -3.08-1.58l3.41-14.83a15.61 15.61 0 0 1 3.5-.25z" fill="#efefef" transform="translate(-10.79 -5)"/><path d="m35.9 141.1-3.14 13.67a14.62 14.62 0 0 1 -2.62-2.59l2.2-9.6a16.53 16.53 0 0 1 3.56-1.48z" fill="#efefef" transform="translate(-10.79 -5)"/><path d="m30.71 143.63-1.6 7a9.12 9.12 0 0 1 -1.2-4.34 16.3 16.3 0 0 1 2.8-2.66z" fill="#efefef" transform="translate(-10.79 -5)"/><path d="m92.33 134a14.34 14.34 0 0 1 -2.31.71l1.98-8.46c.32.12.65.26 1 .41s.74.36 1.11.56a7.14 7.14 0 0 0 -.18-.77 10.53 10.53 0 0 0 -.45-1.3c-.07-.16-.14-.32-.22-.47a10.94 10.94 0 0 0 -.54-1 12.27 12.27 0 0 0 -1.26-1.75 16 16 0 0 0 -3.05-2.77c-.28-.19-.56-.38-.85-.56s-.57-.35-.87-.51a18.33 18.33 0 0 0 -2-.94 17.81 17.81 0 0 0 -1.82-.65c-.44-.13-.89-.25-1.36-.36-7-1.61-13.8.63-16.61 5.13a9.07 9.07 0 0 0 -1.21 2.73l-6.21 27.11-.06.25s0 0 0 .06a.43.43 0 0 1 0 .11 8.56 8.56 0 0 0 -.13 1.33v.15a2.53 2.53 0 0 0 0 .28 6.16 6.16 0 0 0 .05.75 11 11 0 0 0 1.8 4.8q.41.6.87 1.17l.09.1a16 16 0 0 0 2.86 2.63c.38.27.78.53 1.19.78a20.23 20.23 0 0 0 12.46 2.79c.48 0 1-.11 1.42-.2a15.36 15.36 0 0 0 4.4-1.52c.21-.12.43-.23.63-.36a10.59 10.59 0 0 0 3.93-4s0-.07.05-.1l.08-.15a9.31 9.31 0 0 0 .66-1.81v-.14l5.64-24.59c-.36.23-.72.4-1.09.56zm-9.73-8a14.34 14.34 0 0 1 3.44-.67l-2.13 9.31-3.13-.71zm6.28 8.9a13.64 13.64 0 0 1 -3.93 0l2.19-9.54a13.82 13.82 0 0 1 3.8.6zm-30.66 18.67a16.33 16.33 0 0 1 2.78-2.71l-1.54 6.72a9.26 9.26 0 0 1 -1.24-4.01zm2 5.32 2.06-9a15.89 15.89 0 0 1 4-1.78l-3.11 13.69a14.58 14.58 0 0 1 -2.91-2.91zm7.48-11.09a16.33 16.33 0 0 1 3.5-.28l-3.82 16.65a18.13 18.13 0 0 1 -3.08-1.56zm1 16.83 3.9-17c.47.06 1 .13 1.42.23h.15l.29.07q.7.18 1.38.42l-3.9 17c-.57-.08-1.15-.19-1.73-.32s-.99-.25-1.48-.4zm4.62.87 3.81-16.62a15.54 15.54 0 0 1 3 1.78l-3.32 14.74a18.85 18.85 0 0 1 -3.46.1zm8-13.9a16.44 16.44 0 0 1 2.54 2.92l-2.16 9.42a14.53 14.53 0 0 1 -3.49 1.22zm2 11.36 1.54-6.74a16.25 16.25 0 0 1 1.3 3.49 9.35 9.35 0 0 1 -2.82 3.29z" fill="#809699" transform="translate(-10.79 -5)"/><path d="m82.81 116.49c-.44-.13-.89-.25-1.36-.36-7-1.61-13.8.63-16.61 5.13a9.07 9.07 0 0 0 -1.15 2.74l-6.21 27.11-.06.25.42-.43.22-.23.14-.14.19-.18.1-.09.1-.09.09-.08 5.94-25.9c1.32-5.76 8.78-9 16.62-7.18.46.11.92.23 1.36.37a15.54 15.54 0 0 1 1.81.65l.22-.94a17.81 17.81 0 0 0 -1.82-.63zm0 0c-.44-.13-.89-.25-1.36-.36-7-1.61-13.8.63-16.61 5.13a9.07 9.07 0 0 0 -1.15 2.74l-6.21 27.11-.06.25.42-.43.22-.23.14-.14.19-.18.1-.09.1-.09.09-.08 5.94-25.9c1.32-5.76 8.78-9 16.62-7.18.46.11.92.23 1.36.37a15.54 15.54 0 0 1 1.81.65l.22-.94a17.81 17.81 0 0 0 -1.82-.63zm0 0c-.44-.13-.89-.25-1.36-.36-7-1.61-13.8.63-16.61 5.13a9.07 9.07 0 0 0 -1.15 2.74l-6.21 27.11-.06.25.42-.43.22-.23.14-.14.19-.18.1-.09.1-.09.09-.08 5.94-25.9c1.32-5.76 8.78-9 16.62-7.18.46.11.92.23 1.36.37a15.54 15.54 0 0 1 1.81.65l.22-.94a17.81 17.81 0 0 0 -1.82-.63zm0 0c-.44-.13-.89-.25-1.36-.36-7-1.61-13.8.63-16.61 5.13a9.07 9.07 0 0 0 -1.15 2.74l-6.21 27.11-.06.25.42-.43.22-.23.14-.14.19-.18.1-.09.1-.09.09-.08 5.94-25.9c1.32-5.76 8.78-9 16.62-7.18.46.11.92.23 1.36.37a15.54 15.54 0 0 1 1.81.65l.22-.94a17.81 17.81 0 0 0 -1.82-.63zm0 0c-.44-.13-.89-.25-1.36-.36-7-1.61-13.8.63-16.61 5.13a9.07 9.07 0 0 0 -1.15 2.74l-6.21 27.11-.06.25.42-.43.22-.23.14-.14.19-.18.1-.09.1-.09.09-.08 5.94-25.9c1.32-5.76 8.78-9 16.62-7.18.46.11.92.23 1.36.37a15.54 15.54 0 0 1 1.81.65l.22-.94a17.81 17.81 0 0 0 -1.82-.63zm0 0c-.44-.13-.89-.25-1.36-.36-7-1.61-13.8.63-16.61 5.13a9.07 9.07 0 0 0 -1.15 2.74l-6.21 27.11-.06.25.42-.43.22-.23.14-.14.19-.18.1-.09.1-.09.09-.08 5.94-25.9c1.32-5.76 8.78-9 16.62-7.18.46.11.92.23 1.36.37a15.54 15.54 0 0 1 1.81.65l.22-.94a17.81 17.81 0 0 0 -1.82-.63zm12.3 11.37s0 0 0-.07c0-.28-.08-.55-.13-.83a10.65 10.65 0 0 0 -.32-1.2c-.05-.16-.11-.32-.17-.49s-.22-.54-.34-.82a15.66 15.66 0 0 0 -5.57-6.29c-.27-.19-.56-.37-.85-.55s-.57-.33-.87-.49a20.54 20.54 0 0 0 -2-.93c-.58-.23-1.19-.45-1.81-.63-.44-.13-.9-.25-1.36-.36-7-1.6-13.72.45-17 4.7a10 10 0 0 0 -.78 1.14 9.84 9.84 0 0 0 -1.1 2.77l-6.21 27.11a9.19 9.19 0 0 0 -.25 2.21v.76a10.62 10.62 0 0 0 .2 1.36 12.66 12.66 0 0 0 2.3 4.89 19 19 0 0 0 10.94 6.72c8.07 1.85 15.81-1.18 18.32-6.85.05-.11.09-.22.13-.33a8.8 8.8 0 0 0 .45-1.43l6.22-27.1a9.85 9.85 0 0 0 .2-3.29zm-1.69 5.63c-.36.18-.72.35-1.09.5l-5.48 23.88a8.08 8.08 0 0 1 -.59 1.67s-.05.11-.08.16a9.35 9.35 0 0 1 -2.84 3.3 11.81 11.81 0 0 1 -1.62 1 14.53 14.53 0 0 1 -3.49 1.22c-.46.1-.94.18-1.42.24a18.85 18.85 0 0 1 -3.46.1c-.45 0-.92-.08-1.38-.14s-1.15-.19-1.73-.32-1-.26-1.51-.41-.88-.3-1.31-.46a18.13 18.13 0 0 1 -3.08-1.56q-.62-.39-1.17-.81a14.58 14.58 0 0 1 -2.91-2.91 10.34 10.34 0 0 1 -.84-1.31 9.26 9.26 0 0 1 -1.2-4c0-.06 0-.12 0-.18a7.93 7.93 0 0 1 .2-2l6.21-27.1c1.32-5.76 8.78-9 16.62-7.18.46.11.92.23 1.36.37a15.54 15.54 0 0 1 1.81.65 17.62 17.62 0 0 1 2 1l.86.52c.29.19.57.39.84.59a14.52 14.52 0 0 1 2.53 2.33 11.85 11.85 0 0 1 1.21 1.68l.12.2a9.85 9.85 0 0 1 .7 1.47c.1.27.2.55.27.82.37.17.74.36 1.11.56s.7.4 1 .62l-1.24 5.42c-.11-.07-.25.01-.4.08zm-10.61-17c-.44-.13-.89-.25-1.36-.36-7-1.61-13.8.63-16.61 5.13a9.07 9.07 0 0 0 -1.15 2.74l-6.21 27.11-.06.25.42-.43.22-.23.14-.14.19-.18.1-.09.1-.09.09-.08 5.94-25.9c1.32-5.76 8.78-9 16.62-7.18.46.11.92.23 1.36.37a15.54 15.54 0 0 1 1.81.65l.22-.94a17.81 17.81 0 0 0 -1.82-.63zm0 0c-.44-.13-.89-.25-1.36-.36-7-1.61-13.8.63-16.61 5.13a9.07 9.07 0 0 0 -1.15 2.74l-6.21 27.11-.06.25.42-.43.22-.23.14-.14.19-.18.1-.09.1-.09.09-.08 5.94-25.9c1.32-5.76 8.78-9 16.62-7.18.46.11.92.23 1.36.37a15.54 15.54 0 0 1 1.81.65l.22-.94a17.81 17.81 0 0 0 -1.82-.63zm0 0c-.44-.13-.89-.25-1.36-.36-7-1.61-13.8.63-16.61 5.13a9.07 9.07 0 0 0 -1.15 2.74l-6.21 27.11-.06.25.42-.43.22-.23.14-.14.19-.18.1-.09.1-.09.09-.08 5.94-25.9c1.32-5.76 8.78-9 16.62-7.18.46.11.92.23 1.36.37a15.54 15.54 0 0 1 1.81.65l.22-.94a17.81 17.81 0 0 0 -1.82-.63zm0 0c-.44-.13-.89-.25-1.36-.36-7-1.61-13.8.63-16.61 5.13a9.07 9.07 0 0 0 -1.15 2.74l-6.21 27.11-.06.25.42-.43.22-.23.14-.14.19-.18.1-.09.1-.09.09-.08 5.94-25.9c1.32-5.76 8.78-9 16.62-7.18.46.11.92.23 1.36.37a15.54 15.54 0 0 1 1.81.65l.22-.94a17.81 17.81 0 0 0 -1.82-.63zm0 0c-.44-.13-.89-.25-1.36-.36-7-1.61-13.8.63-16.61 5.13a9.07 9.07 0 0 0 -1.15 2.74l-6.21 27.11-.06.25.42-.43.22-.23.14-.14.19-.18.1-.09.1-.09.09-.08 5.94-25.9c1.32-5.76 8.78-9 16.62-7.18.46.11.92.23 1.36.37a15.54 15.54 0 0 1 1.81.65l.22-.94a17.81 17.81 0 0 0 -1.82-.63zm0 0c-.44-.13-.89-.25-1.36-.36-7-1.61-13.8.63-16.61 5.13a9.07 9.07 0 0 0 -1.15 2.74l-6.21 27.11-.06.25.42-.43.22-.23.14-.14.19-.18.1-.09.1-.09.09-.08 5.94-25.9c1.32-5.76 8.78-9 16.62-7.18.46.11.92.23 1.36.37a15.54 15.54 0 0 1 1.81.65l.22-.94a17.81 17.81 0 0 0 -1.82-.63z" fill="#231f20" transform="translate(-10.79 -5)"/><path d="m86.18 159.71a9.35 9.35 0 0 1 -2.84 3.29l1.54-6.74a16.25 16.25 0 0 1 1.3 3.45z" fill="#efefef" transform="translate(-10.79 -5)"/><path d="m83.88 154.52-2.16 9.42a14.53 14.53 0 0 1 -3.49 1.22l3.11-13.56a16.44 16.44 0 0 1 2.54 2.92z" fill="#efefef" transform="translate(-10.79 -5)"/><path d="m80.19 150.66-3.38 14.74a18.85 18.85 0 0 1 -3.46.1l3.81-16.62a15.54 15.54 0 0 1 3.03 1.78z" fill="#efefef" transform="translate(-10.79 -5)"/><path d="m75.87 148.37-3.9 17c-.57-.08-1.15-.19-1.73-.32s-1-.26-1.51-.41l3.9-17c.47.06 1 .13 1.42.23h.15l.29.07q.7.19 1.38.43z" fill="#efefef" transform="translate(-10.79 -5)"/><path d="m71.24 147.52-3.82 16.65a18.13 18.13 0 0 1 -3.08-1.56l3.4-14.81a16.33 16.33 0 0 1 3.5-.28z" fill="#efefef" transform="translate(-10.79 -5)"/><path d="m66.29 148.15-3.12 13.65a14.58 14.58 0 0 1 -2.91-2.91l2.06-9a15.89 15.89 0 0 1 3.97-1.74z" fill="#efefef" transform="translate(-10.79 -5)"/><path d="m61 150.86-1.54 6.72a9.26 9.26 0 0 1 -1.2-4 16.33 16.33 0 0 1 2.74-2.72z" fill="#efefef" transform="translate(-10.79 -5)"/><path d="m79.38 131.16-25-4.66-26.67-6.17-2.58-1.67-2.59-1.66-4.33-7.84 10.17-1.5 13.33 6.84 40.92 5.65 6.58 4.6z" fill="#fff"/><path d="m104.25 63.89-.58-.29-.38-.18c-.33-.14-.66-.28-1-.4a17 17 0 0 0 -1.76-.52l-43.18-9.9a13.94 13.94 0 0 0 -1.81-.3c-.36 0-.71-.06-1.07-.07h-1.07a14.94 14.94 0 0 0 -13.94 11.57l-10.08 44a14.53 14.53 0 0 0 -.37 2.67v1s0 .66.05 1c0 .16 0 .32.05.49a15.51 15.51 0 0 0 .36 1.9 14.92 14.92 0 0 0 2 4.55c.09.15.19.3.29.44l.29.39.47.58c.25.3.51.58.78.86a15 15 0 0 0 1.87 1.6l.38.26a14.82 14.82 0 0 0 5 2.18l43.18 9.9a14.84 14.84 0 0 0 5.46.23l.55-.09a14.85 14.85 0 0 0 2.29-.61c.36-.13.72-.27 1.08-.43l.67-.32c.15-.07.29-.15.43-.23s.38-.2.56-.31a15.05 15.05 0 0 0 3.74-3.2 14.86 14.86 0 0 0 1.14-1.56l.24-.38c.17-.28.33-.57.48-.86s.28-.59.41-.89a15.35 15.35 0 0 0 .84-2.56l10.08-44a14.91 14.91 0 0 0 -7.45-16.52zm-73.88 50.64a21.71 21.71 0 0 1 2.36-.56l-.94 4.03a14.52 14.52 0 0 1 -1.42-3.47zm3.21 6c-.27-.3-.52-.6-.77-.93l-.21-.29 1.26-5.49c.37 0 .73-.08 1.1-.1s.83 0 1.25 0 .78 0 1.16.06l-1.94 8.48a13 13 0 0 1 -1.85-1.75zm4.85-6.65a14 14 0 0 1 3.69 1.12l-2.19 9.54a13.93 13.93 0 0 1 -3.56-1.64zm2.57 10.9 2.14-9.3a13.87 13.87 0 0 1 2.73 2l-1.82 8zm41.6 1.22a14.34 14.34 0 0 1 3.44-.67l-2.13 9.31-3.13-.71zm4.54-.69a13.82 13.82 0 0 1 3.8.6l-2.06 9a13.64 13.64 0 0 1 -3.93 0zm5.19 8.69a14.34 14.34 0 0 1 -2.31.71l1.98-8.46c.32.12.65.26 1 .41s.74.36 1.11.56.7.4 1 .62l-1.24 5.42c-.14.08-.28.16-.43.23-.38.18-.74.35-1.11.51zm2.79-1.52.91-4a20.2 20.2 0 0 1 1.82 1.52 14.12 14.12 0 0 1 -2.73 2.47z" fill="#809699" transform="translate(-10.79 -5)"/><path d="m105.12 63.28-.91-.49h-.06c-.32-.17-.66-.31-1-.45a15.07 15.07 0 0 0 -1.64-.56l-.77-.2-43.17-9.9-.78-.16a16.82 16.82 0 0 0 -1.72-.21c-.37 0-.74 0-1.1 0h-.07c-.34 0-.68 0-1 0a15.92 15.92 0 0 0 -14.37 12.28l-10.09 44a16.39 16.39 0 0 0 -.37 2.65v1s0 .67 0 1a15.93 15.93 0 0 0 3.43 8.76q.38.47.78.9c.25.28.52.54.79.8a15.85 15.85 0 0 0 7.31 3.89l43.17 9.9a15.72 15.72 0 0 0 8.27-.31c.36-.12.72-.24 1.06-.38s.74-.31 1.1-.48a15.92 15.92 0 0 0 6.92-6.44c.17-.28.32-.58.47-.88s.28-.59.4-.89a16.5 16.5 0 0 0 .82-2.55l10.09-44a15.92 15.92 0 0 0 -7.56-17.28zm-5.67 64.29c-.15.29-.31.56-.48.84a15.3 15.3 0 0 1 -1.12 1.59 14.12 14.12 0 0 1 -2.73 2.51l-.57.38c-.23.14-.46.28-.7.41s-.28.16-.43.23c-.36.18-.72.35-1.09.5a14.34 14.34 0 0 1 -2.31.71c-.38.08-.75.14-1.14.19a13.64 13.64 0 0 1 -3.93 0c-.33-.05-.65-.12-1-.19l-43.18-9.9-.87-.23a13.93 13.93 0 0 1 -3.56-1.64 10.62 10.62 0 0 1 -.94-.67 13 13 0 0 1 -1.85-1.7c-.27-.3-.52-.6-.77-.93l-.21-.29c-.19-.25-.36-.51-.52-.77s-.2-.31-.29-.48a14.52 14.52 0 0 1 -1.42-3.51 14.93 14.93 0 0 1 -.33-1.89c0-.33-.05-.65-.07-1s0-.64 0-1a13.58 13.58 0 0 1 .35-2.66l10.1-44.07a14 14 0 0 1 13.45-10.83h.41.64a9.32 9.32 0 0 1 1 .1c.4.05.8.13 1.2.22l43.18 9.91a11.19 11.19 0 0 1 1.17.32q.51.16 1 .36l.58.25h.08l.26.12a14 14 0 0 1 7.37 15.63l-10.08 44a14.4 14.4 0 0 1 -.85 2.55c-.06.37-.19.66-.35.94z" fill="#231f20" transform="translate(-10.79 -5)"/><path d="m97.85 130a14.12 14.12 0 0 1 -2.73 2.51l.91-4a20.2 20.2 0 0 1 1.82 1.49z" fill="#efefef" transform="translate(-10.79 -5)"/><path d="m94.05 127.22c-.37-.2-.74-.39-1.11-.56s-.66-.29-1-.41l-1.94 8.45a14.34 14.34 0 0 0 2.31-.71c.37-.15.73-.32 1.09-.5.15-.07.29-.15.43-.23l1.24-5.42c-.32-.22-.67-.42-1.02-.62z" fill="#efefef" transform="translate(-10.79 -5)"/><path d="m90.94 125.9-2.06 9a13.64 13.64 0 0 1 -3.93 0l2.19-9.54a13.82 13.82 0 0 1 3.8.54z" fill="#efefef" transform="translate(-10.79 -5)"/><path d="m86 125.32-2.13 9.31-3.13-.71 1.86-7.92a14.34 14.34 0 0 1 3.4-.68z" fill="#efefef" transform="translate(-10.79 -5)"/><path d="m31.79 118a14.52 14.52 0 0 1 -1.42-3.51 21.71 21.71 0 0 1 2.36-.56" fill="#efefef" transform="translate(-10.79 -5)"/><path d="m57.77 54.68a13.51 13.51 0 0 0 -1.67-.27c-.33 0-.66-.06-1-.07h-1a13.77 13.77 0 0 0 -12.82 10.66l-10.91 47.59a25 25 0 0 1 3.85-.73h.11l10.55-46a13.75 13.75 0 0 1 12.84-10.69h1l1 .06a14.2 14.2 0 0 1 1.67.28z" fill="#efefef" transform="translate(-10.79 -5)"/><path d="m99.24 64.19a13.82 13.82 0 0 1 1.62.48l.92.37.36.17.53.26a13.78 13.78 0 0 1 6.91 15.22l-10.91 47.57a26.07 26.07 0 0 0 -3.15-2.34l-.08-.1 10.54-46a13.77 13.77 0 0 0 -6.91-15.21l-.53-.26-.35-.17c-.3-.14-.61-.26-.92-.38a15 15 0 0 0 -1.62-.47z" fill="#efefef" transform="translate(-10.79 -5)"/><path d="m74.83 75.47a28.47 28.47 0 1 1 34.11-21.39 28.5 28.5 0 0 1 -34.11 21.39z" fill="#809699" transform="translate(-10.79 -5)"/><path d="m87.34 20.9a27.52 27.52 0 1 1 -33 20.67 27.52 27.52 0 0 1 33-20.67m.43-1.9a29.43 29.43 0 1 0 18.35 13.05 29.27 29.27 0 0 0 -18.35-13.05z" fill="#231f20" transform="translate(-10.79 -5)"/><path d="m85.78 23a27.45 27.45 0 0 1 3 .87 22.44 22.44 0 0 0 -4.78-1.67 21.72 21.72 0 0 0 -23.9 10.28 24.68 24.68 0 0 1 25.68-9.48z" fill="#efefef" transform="translate(-10.79 -5)"/><path d="m77.55 63.61c-14.38-3.3-24.39-13.38-22.31-22.46s15.48-13.78 29.86-10.48 24.4 13.33 22.32 22.45-15.48 13.79-29.87 10.49z" fill="#c6cdd1" transform="translate(-10.79 -5)"/><path d="m84.94 31.39c6.89 1.58 13 4.77 17.07 9 4 4 5.62 8.5 4.68 12.58s-4.38 7.38-9.69 9.3c-5.55 2-12.4 2.21-19.28.63s-13-4.76-17.08-9c-4-4-5.61-8.51-4.68-12.59s4.38-7.38 9.7-9.29c5.54-2 12.39-2.22 19.28-.64m.33-1.45c-14.81-3.39-28.58 1.56-30.76 11.07s8.07 19.94 22.88 23.34 28.57-1.55 30.75-11-8.06-19.95-22.87-23.35z" fill="#231f20" transform="translate(-10.79 -5)"/><path d="m88.32 33.16c-1.15-.38-2.34-.71-3.56-1-13-3-25.14 1.36-27.05 9.72-1.71 7.3 4.99 15.25 15.4 19.12 1.89-11 5.89-22.17 15.21-27.84z" fill="#efefef" transform="translate(-10.79 -5)"/><path d="m103.62 63.68a28.16 28.16 0 0 1 -49.47-10.91 26.52 26.52 0 0 0 49.47 10.91z" fill="#231f20" transform="translate(-10.79 -5)"/><path d="m29.01 105.95h40.47v1.91h-40.47z" fill="#231f20" transform="matrix(.22359036 -.97468321 .97468321 .22359036 -76.75 126)"/><path d="m63.92 113.96h40.47v1.91h-40.47z" fill="#231f20" transform="matrix(.22359036 -.97468321 .97468321 .22359036 -57.45 166.25)"/><path d="m57.74 152.83-.49.1h-.15l-.29.05-.51.1-.43.09c0-.1 0-.21-.07-.32a15.79 15.79 0 0 0 -1.26-3.51 14.66 14.66 0 0 0 -.81-1.44 16 16 0 0 0 -2.81-3.32c-.36-.33-.75-.65-1.14-.95a16.38 16.38 0 0 0 -3-1.78c-.42-.19-.86-.36-1.3-.51a15.76 15.76 0 0 0 -1.66-.48h-.08c-.5-.11-1-.2-1.49-.26s-.93-.09-1.39-.11a15.61 15.61 0 0 0 -3.49.25q-.73.14-1.44.33a16.53 16.53 0 0 0 -3.56 1.48 16.7 16.7 0 0 0 -1.63 1 16.3 16.3 0 0 0 -2.8 2.65l-.46.57-.5-.46-.91-.83a16.37 16.37 0 0 1 1.12-1.35c.41-.43.83-.85 1.27-1.23a17.74 17.74 0 0 1 15.67-3.9h.08a18 18 0 0 1 12.6 10.72c.13.34.26.69.38 1 0 .07.05.14.07.21s.09.27.12.4 0 0 0 0a.14.14 0 0 1 0 .07c.17.6.27 1 .36 1.43z" fill="#231f20" transform="translate(-10.79 -5)"/><path d="m47.56 116.53-1.36 1.34c-.12-.13-.24-.25-.37-.37a13.87 13.87 0 0 0 -2.73-2 10 10 0 0 0 -1-.5 14 14 0 0 0 -3.69-1.12c-.34-.06-.7-.1-1.06-.13s-.77 0-1.16-.06-.83 0-1.25 0-.73 0-1.1.1h-.13c-.33 0-.67.08-1 .15a21.71 21.71 0 0 0 -2.36.56c-.3.08-.6.18-.91.29l-.36.12-.64-1.8.64-.22c.32-.1.63-.2.94-.28a24.47 24.47 0 0 1 2.78-.62 20.9 20.9 0 0 1 2.56-.25h1.42s1 .07 1.44.13l.52.08a15.72 15.72 0 0 1 2.76.7 15.22 15.22 0 0 1 4.76 2.72 14.68 14.68 0 0 1 1.3 1.16z" fill="#231f20" transform="translate(-10.79 -5)"/><path d="m88.26 159.72-.11.05-.29.1-.84.31-.56.2a1.6 1.6 0 0 0 0-.21c0-.21-.09-.42-.14-.62a16 16 0 0 0 -1.34-3.47 14.69 14.69 0 0 0 -1-1.66 15.58 15.58 0 0 0 -2.56-2.88 13 13 0 0 0 -1.15-.93 15.42 15.42 0 0 0 -3-1.75c-.42-.18-.86-.35-1.3-.5s-.91-.29-1.38-.4h-.08l-.21-.05h-.15c-.47-.1-1-.17-1.42-.23s-.93-.08-1.39-.1a16.33 16.33 0 0 0 -3.5.28c-.49.1-1 .21-1.45.35a15.89 15.89 0 0 0 -4 1.78 15.56 15.56 0 0 0 -1.36.93 16.33 16.33 0 0 0 -2.74 2.71l-.13.16-.09-.07-.32-.25-.43-.33-.22-.14-.19-.15-.33-.25c.24-.32.5-.62.76-.92v-.05a15.75 15.75 0 0 1 1.22-1.23 18 18 0 0 1 15.88-4.4l.19.05h.22.1a17.64 17.64 0 0 1 12.26 10.2 15.26 15.26 0 0 1 .6 1.64 17.83 17.83 0 0 1 .45 1.83z" fill="#231f20" transform="translate(-10.79 -5)"/><path d="m100.23 129.6-1.36 1.4c-.11-.11-.21-.23-.32-.33s-.47-.45-.7-.66a20.2 20.2 0 0 0 -1.85-1.52 10.73 10.73 0 0 0 -.92-.63c-.34-.22-.69-.42-1-.62s-.74-.39-1.11-.56-.66-.29-1-.41-.68-.24-1-.35a13.82 13.82 0 0 0 -3.8-.6c-.37 0-.73 0-1.1 0a14.34 14.34 0 0 0 -3.44.67l-.4.13-.64-1.8c.51-.17 1-.33 1.53-.45a15.26 15.26 0 0 1 5.49-.4 15.48 15.48 0 0 1 2.76.54l.51.16q.69.22 1.35.51c.43.18.86.38 1.28.59a20.68 20.68 0 0 1 2.34 1.43 22.25 22.25 0 0 1 2.15 1.71s0 0 0 0l.67.62z" fill="#231f20" transform="translate(-10.79 -5)"/><path d="m85.07 10.6a5.62 5.62 0 0 1 8.72-3.33 5.14 5.14 0 0 0 -8.79 2.34 5.26 5.26 0 0 0 -.07 1.93 6.24 6.24 0 0 1 .14-.94z" fill="#efefef" transform="translate(-10.79 -5)"/><path d="m28.48 57.63 10.96 3-.05.21-11.17-2.05z" fill="#231f20"/><path d="m25.58 70.36 10.95 2.99-.05.22-11.17-2.06z" fill="#231f20"/><path d="m22.67 83.08 10.95 3-.05.21-11.16-2.05z" fill="#231f20"/><path d="m19.76 95.8 10.96 3-.05.22-11.17-2.06z" fill="#231f20"/><path d="m21.84 117.2 14.1 3.78-.06.25-14.34-2.72z" fill="#231f20"/><path d="m20.63 122.51 14.09 3.78-.05.25-14.34-2.71z" fill="#231f20"/><path d="m19.42 127.82 14.09 3.78-.06.25-14.33-2.72z" fill="#231f20"/><path d="m82.82 132.51-14.09-3.78.05-.24 14.34 2.71z" fill="#231f20"/><path d="m81.61 137.82-14.1-3.77.06-.25 14.34 2.71z" fill="#231f20"/><path d="m80.39 143.13-14.09-3.78.06-.24 14.33 2.71z" fill="#231f20"/><path d="m101 75.42-10.96-3 .05-.22 11.17 2.06z" fill="#231f20"/><path d="m98.09 88.14-10.95-3 .05-.21 11.16 2.05z" fill="#231f20"/><path d="m95.18 100.86-10.95-2.99.05-.22 11.16 2.06z" fill="#231f20"/><path d="m92.27 113.59-10.95-3 .05-.22 11.17 2.06z" fill="#231f20"/><g transform="translate(-10.79 -5)"><path d="m51.05 46.21a23.29 23.29 0 0 1 -2.78-.12c-.41 0-.86-.08-1.33-.15l-.72-.09h-.11-.19-.38a1.71 1.71 0 0 0 -.63.06 2.17 2.17 0 0 0 -.61.15l-.31.09a2.64 2.64 0 0 0 -.29.15l-.3.16h-.07s-.08 0 .06-.05l-.16.12-.33.25-.16.12-.09.12c-.11.16-.26.27-.37.45s-.24.37-.35.56l-.24.59c-.15.49-.29 1-.43 1.4s-.29.87-.43 1.26a23.93 23.93 0 0 1 -1.06 2.57h-.19a24.07 24.07 0 0 1 .16-2.76c0-.41.09-.86.17-1.33s.11-.94.24-1.47c.08-.29.17-.59.25-.89s.28-.56.44-.84a7.61 7.61 0 0 1 .65-.8 1.64 1.64 0 0 1 .34-.32l.32-.25.16-.13.09-.06.11-.05.44-.22c.14-.06.29-.14.44-.19l.46-.12a3.06 3.06 0 0 1 1-.15 4.45 4.45 0 0 1 .93 0l.37.08h.19.09.09l.69.23c.45.14.87.29 1.25.44a23.58 23.58 0 0 1 2.59 1.19z" fill="#efefef"/><path d="m108.93 59.44a21.86 21.86 0 0 1 2.78.11l1.32.15.72.09h.08.07.09.18l.37.1a3.77 3.77 0 0 1 .84.36 4.56 4.56 0 0 1 .44.24l.37.31a3.37 3.37 0 0 1 .68.68 3.67 3.67 0 0 1 .55.8 5.74 5.74 0 0 1 .59 1.84v.94s-.1.61-.15.91c-.12.53-.29 1-.43 1.44s-.29.87-.43 1.26a25.81 25.81 0 0 1 -1 2.56h-.2a23.1 23.1 0 0 1 .17-2.77c0-.41.09-.86.16-1.32s.14-.95.21-1.45c0-.21 0-.43 0-.64s-.07-.43-.07-.65a3.68 3.68 0 0 0 -.44-1.24 2.69 2.69 0 0 0 -.35-.55 2.08 2.08 0 0 0 -.44-.49l-.24-.23-.24-.16a1.67 1.67 0 0 0 -.55-.33l-.35-.15-.18-.07h-.08.06l-.69-.22q-.67-.23-1.26-.45a24.15 24.15 0 0 1 -2.58-1.07z" fill="#efefef"/><path d="m82.3 97.69a2.7 2.7 0 0 1 -1.2 1.68 2.67 2.67 0 0 1 -2 .34l-18.65-4.25a2.71 2.71 0 0 1 -2-3.23l2.55-11.06a2.7 2.7 0 0 1 3.22-2l18.58 4.23a2.68 2.68 0 0 1 2 3.22z" fill="#c6cdd1"/><path d="m82.58 97.78s0 .07-.07.21a2.22 2.22 0 0 1 -.3.64 2.91 2.91 0 0 1 -2.21 1.37 3.15 3.15 0 0 1 -.91-.05l-.9-.22-2-.48-4.85-1.13c-1.77-.42-3.7-.82-5.74-1.27l-3.15-.68-1.62-.35-.44-.1-.4-.13a2.6 2.6 0 0 1 -.83-.49 2.9 2.9 0 0 1 -1-1.61 4 4 0 0 1 .09-1.87q.38-1.72.75-3.48c.51-2.35 1-4.75 1.54-7.14l.14-.43a4.66 4.66 0 0 1 .25-.5 2.53 2.53 0 0 1 .33-.44 2 2 0 0 1 .39-.38l.22-.16.13-.09h.1a3.75 3.75 0 0 1 .44-.2c.19-.06.38-.12.56-.16h.54a11.41 11.41 0 0 1 1.9.34l1.76.39 6.86 1.53 6.4 1.49 1.5.36.73.18a6.36 6.36 0 0 1 .77.25 3.19 3.19 0 0 1 1.84 2.7 3 3 0 0 1 0 .79c0 .26-.1.44-.15.67-.1.42-.21.83-.3 1.24-.2.8-.39 1.57-.56 2.29-.36 1.44-.66 2.69-.92 3.73l-.79 3.26zm-.58-.17c0-.09.26-1.26.69-3.26l.8-3.75c.15-.73.31-1.5.49-2.31.08-.41.17-.83.26-1.25a3.44 3.44 0 0 0 .14-1.18 2.26 2.26 0 0 0 -.38-1.06 2.57 2.57 0 0 0 -.84-.72 5.18 5.18 0 0 0 -.66-.2l-.73-.16-1.51-.32-6.41-1.4-6.85-1.65-1.75-.41a13.44 13.44 0 0 0 -1.66-.33h-.37l-.32.07a2.43 2.43 0 0 0 -.39.17h-.1s-.08 0 0 0l-.15.11a1.07 1.07 0 0 0 -.27.25 1.49 1.49 0 0 0 -.23.28 2 2 0 0 0 -.17.3l-.15.43c-.57 2.35-1.13 4.7-1.69 7-.28 1.16-.56 2.31-.83 3.46a3.33 3.33 0 0 0 -.14 1.57 2.32 2.32 0 0 0 .76 1.28 1.12 1.12 0 0 0 .29.21 1.48 1.48 0 0 0 .33.18l.4.14.38.09 1.61.39 3.13.75c2 .49 3.95 1 5.73 1.36l4.86 1.09 2 .44.9.19a2.79 2.79 0 0 0 .76 0 2.5 2.5 0 0 0 .64-.16l.3-.16.12-.06.11-.09a1.56 1.56 0 0 0 .37-.35 1.59 1.59 0 0 0 .25-.33c.05-.11.11-.19.15-.28l.08-.27z" fill="#231f20"/><path d="m81.94 87.92a2.12 2.12 0 1 1 -1.6-2.55 2.13 2.13 0 0 1 1.6 2.55z" fill="#efefef"/><path d="m76.4 92.13a1.13 1.13 0 1 1 -.85-1.35 1.12 1.12 0 0 1 .85 1.35z" fill="#efefef"/><path d="m78.17 94.53a1.13 1.13 0 1 1 -.85-1.35 1.12 1.12 0 0 1 .85 1.35z" fill="#efefef"/><path d="m74 84.9a1.29 1.29 0 0 1 -1.53 1l-9-2.06a1.27 1.27 0 0 1 -1-1.53 1.27 1.27 0 0 1 1.53-1l9 2a1.3 1.3 0 0 1 1 1.54z" fill="#efefef"/><path d="m67.13 92.23a1.28 1.28 0 0 1 -1.53 1l-4.13-.94a1.28 1.28 0 0 1 -1-1.53 1.29 1.29 0 0 1 1.53-1l4.12 1a1.28 1.28 0 0 1 1 1.53z" fill="#efefef"/><path d="m198.25 70.71a22.16 22.16 0 0 0 -7.22-5 26.23 26.23 0 0 0 -20 .25 23.25 23.25 0 0 0 -7.67 5.62 24.54 24.54 0 0 0 -4.82 8.17 29.25 29.25 0 0 0 0 19.54 24.49 24.49 0 0 0 4.82 8.18 23.25 23.25 0 0 0 7.67 5.62 24 24 0 0 0 10.23 2.1 34.29 34.29 0 0 0 8.85-1.13 31.63 31.63 0 0 0 7.59-3.07v-19.9h-14.13v-5.54h20.21v29.1a42.92 42.92 0 0 1 -11 4.49 45.9 45.9 0 0 1 -11.45 1.55 31.65 31.65 0 0 1 -12.33-2.35 29.49 29.49 0 0 1 -16.29-16.34 34.39 34.39 0 0 1 0-25 29.49 29.49 0 0 1 16.29-16.35 31.65 31.65 0 0 1 12.3-2.35 34.51 34.51 0 0 1 12.29 2 25.92 25.92 0 0 1 9.18 6z" fill="#231f20"/><path d="m218.2 92.18c0-1.73 0-3.5-.12-5.29s-.16-4.1-.21-7h5.45v7.3h.17a12.41 12.41 0 0 1 1.67-3.06 13.06 13.06 0 0 1 6.25-4.53 14.3 14.3 0 0 1 4.66-.71 15.31 15.31 0 0 1 4.11.5l-1.09 5.45a9.32 9.32 0 0 0 -3.19-.42 11.37 11.37 0 0 0 -5.45 1.22 12.1 12.1 0 0 0 -3.78 3.1 13.19 13.19 0 0 0 -2.22 4.07 13.6 13.6 0 0 0 -.71 4.19v22.14h-5.54z" fill="#231f20"/><path d="m270.62 95.11v-1q0-10.11-10.07-10.11a17.36 17.36 0 0 0 -12 4.61l-3.35-3.94q5.53-5.7 16.6-5.7a18.11 18.11 0 0 1 5.5.84 12.55 12.55 0 0 1 4.57 2.55 12.79 12.79 0 0 1 3.1 4.32 15.09 15.09 0 0 1 1.17 6.21v17.53q0 2.27.21 4.74c.14 1.64.3 3 .46 4.06h-5.36a29.53 29.53 0 0 1 -.38-3.1c-.08-1.12-.13-2.21-.13-3.27h-.16a15.07 15.07 0 0 1 -5.75 5.66 17.34 17.34 0 0 1 -8.09 1.72 17.93 17.93 0 0 1 -5-.71 13 13 0 0 1 -4.32-2.18 11 11 0 0 1 -3-3.61 10.47 10.47 0 0 1 -1.13-5 10.76 10.76 0 0 1 2.47-7.51 15.15 15.15 0 0 1 6.21-4.06 30.12 30.12 0 0 1 8-1.68c2.83-.22 5.41-.34 7.76-.34zm-2.85 4.53c-1.4 0-3.15.07-5.24.21a30.36 30.36 0 0 0 -6 1 13.25 13.25 0 0 0 -5 2.47 5.64 5.64 0 0 0 -2.06 4.61 6.33 6.33 0 0 0 2.94 5.58 9 9 0 0 0 3 1.26 14.74 14.74 0 0 0 3.31.38 12.62 12.62 0 0 0 5.24-1 10.74 10.74 0 0 0 6-6.75 16.7 16.7 0 0 0 .71-4.91v-2.85z" fill="#231f20"/><path d="m306.26 119.18h-6.21l-15.93-39.25h6.54l12.58 33.07h.17l12.5-33h6.28z" fill="#231f20"/><path d="m337.46 64.84a3.71 3.71 0 0 1 -1.26 2.89 4 4 0 0 1 -5.54 0 4 4 0 0 1 0-5.78 3.94 3.94 0 0 1 5.54 0 3.69 3.69 0 0 1 1.26 2.89zm-1.26 54.34h-5.54v-39.25h5.54z" fill="#231f20"/><path d="m369.83 85h-11.32v23.14a12.6 12.6 0 0 0 .42 3.57 5.13 5.13 0 0 0 1.17 2.14 4 4 0 0 0 1.8 1 8.39 8.39 0 0 0 2.31.3 10.86 10.86 0 0 0 2.93-.42 13.43 13.43 0 0 0 2.77-1.09l.25 5.11a17.76 17.76 0 0 1 -7.46 1.43 13.9 13.9 0 0 1 -3.31-.42 7.84 7.84 0 0 1 -3.15-1.59 8.93 8.93 0 0 1 -2.35-3.19 12.86 12.86 0 0 1 -.92-5.28v-24.7h-8.3v-5h8.33v-11.14h5.54v11.07h11.32z" fill="#231f20"/><path d="m392 112.39 12-32.46h6.71l-19.71 49.48a20.33 20.33 0 0 1 -4.48 7.22q-2.73 2.69-7.84 2.68c-.84 0-1.69 0-2.56-.08a10.29 10.29 0 0 1 -2.56-.51l.59-5.36a9 9 0 0 0 4.19.92 5.92 5.92 0 0 0 4.61-1.85 16.06 16.06 0 0 0 2.94-5.2l2.85-7.54-16.1-39.76h7z" fill="#231f20"/><path d="m411.51 59.81h12.16l16.18 44.86 16.69-44.86h11.46l-24 59.37h-9.14z" fill="#3a3738"/><path d="m469.62 65.26a5.8 5.8 0 0 1 1.81-4.26 6.19 6.19 0 0 1 4.57-1.8 6.64 6.64 0 0 1 4.65 1.72 5.88 5.88 0 0 1 0 8.64 6.68 6.68 0 0 1 -4.65 1.74 6.16 6.16 0 0 1 -4.57-1.81 5.76 5.76 0 0 1 -1.81-4.23zm1.43 13.67h10.06v40.25h-10.06z" fill="#3a3738"/><path d="m500.74 102.58a10.2 10.2 0 0 0 3.52 7 11 11 0 0 0 7.3 2.52 12.07 12.07 0 0 0 6.33-1.55 17.73 17.73 0 0 0 4.48-3.9l7.22 5.45a20.31 20.31 0 0 1 -7.89 6.2 23.19 23.19 0 0 1 -9.14 1.85 24 24 0 0 1 -8.55-1.51 20.47 20.47 0 0 1 -7-4.28 20.23 20.23 0 0 1 -4.66-6.66 22.76 22.76 0 0 1 0-17.36 20 20 0 0 1 11.65-10.91 24 24 0 0 1 8.55-1.51 19.54 19.54 0 0 1 7.68 1.47 16.52 16.52 0 0 1 6 4.23 19.6 19.6 0 0 1 3.86 6.84 29.07 29.07 0 0 1 1.38 9.35v2.77zm20.63-7.58a9.48 9.48 0 0 0 -2.77-7 10.36 10.36 0 0 0 -7.46-2.56 9.79 9.79 0 0 0 -7.17 2.6 11.58 11.58 0 0 0 -3.23 7z" fill="#3a3738"/><path d="m535.37 78.93h10.91l8.72 28.18h.16l8.14-28.18h10.9l8.72 28.18h.17l8.39-28.18h10.14l-13.62 40.25h-10l-9.57-27.51h-.16l-8.47 27.51h-10.4z" fill="#3a3738"/></g><path d="m63.79 19.8h37.22v55.84h-37.22z" fill="none" transform="matrix(.2254612 -.97425215 .97425215 .2254612 6.53 112.24)"/></svg>