<svg width="300" height="215" viewBox="0 0 300 215" fill="none" xmlns="http://www.w3.org/2000/svg">
<rect width="300" height="201" fill="#3A7F9E"/>
<g filter="url(#filter0_d)">
<rect x="20" y="20" width="260" height="161" rx="4" fill="white"/>
</g>
<rect x="40" y="40" width="220" height="4" rx="2" fill="#E1E3E6"/>
<rect x="40" y="54" width="220" height="4" rx="2" fill="#E1E3E6"/>
<rect x="40" y="68" width="60" height="4" rx="2" fill="#E1E3E6"/>
<path d="M46.245 91.965L44.727 93.446C44.5869 93.5852 44.5074 93.7741 44.5058 93.9716C44.5042 94.1692 44.5805 94.3593 44.7182 94.5009C44.856 94.6425 45.044 94.724 45.2415 94.7277C45.439 94.7315 45.63 94.6572 45.773 94.521L47.3 93.033C47.4731 92.853 47.6804 92.7095 47.9098 92.6107C48.1391 92.512 48.3859 92.4601 48.6356 92.458C48.8853 92.4559 49.1328 92.5037 49.3638 92.5986C49.5948 92.6935 49.8045 92.8336 49.9806 93.0106C50.1566 93.1876 50.2956 93.398 50.3893 93.6295C50.483 93.861 50.5295 94.1088 50.5261 94.3585C50.5227 94.6082 50.4694 94.8546 50.3695 95.0835C50.2695 95.3123 50.1249 95.5188 49.944 95.691L48.463 97.21C48.3929 97.2802 48.3374 97.3637 48.2998 97.4555C48.2622 97.5473 48.2431 97.6457 48.2438 97.745C48.2445 97.8442 48.2649 97.9423 48.3037 98.0336C48.3426 98.1249 48.3992 98.2076 48.4703 98.2769C48.5413 98.3462 48.6254 98.4006 48.7177 98.4372C48.81 98.4737 48.9086 98.4916 49.0078 98.4897C49.107 98.4879 49.2049 98.4663 49.2957 98.4264C49.3866 98.3864 49.4686 98.3289 49.537 98.257L51.012 96.745C51.6435 96.1113 51.9981 95.2531 51.9981 94.3585C51.9981 93.4639 51.6435 92.6057 51.012 91.972C50.3696 91.3604 49.5169 91.0186 48.6299 91.0173C47.7429 91.016 46.8892 91.3552 46.245 91.965V91.965Z" fill="#0073AA"/>
<path d="M46.227 99.446L44.7 100.935C44.526 101.112 44.3188 101.252 44.0903 101.348C43.8618 101.444 43.6165 101.494 43.3687 101.494C43.1208 101.495 42.8753 101.446 42.6464 101.351C42.4174 101.256 42.2095 101.117 42.0348 100.941C41.86 100.765 41.7218 100.557 41.6282 100.327C41.5346 100.098 41.4874 99.852 41.4894 99.6042C41.4914 99.3563 41.5425 99.1113 41.6397 98.8834C41.737 98.6554 41.8785 98.449 42.056 98.276L43.537 96.757C43.6731 96.6141 43.7473 96.4232 43.7437 96.2259C43.74 96.0285 43.6587 95.8406 43.5173 95.7028C43.376 95.5651 43.1861 95.4885 42.9887 95.4899C42.7913 95.4912 42.6024 95.5703 42.463 95.71L40.988 97.222C40.369 97.8572 40.0248 98.7105 40.03 99.5974C40.0352 100.484 40.3893 101.334 41.0157 101.961C41.6421 102.589 42.4905 102.945 43.3774 102.953C44.2643 102.96 45.1184 102.618 45.755 102L47.273 100.521C47.4131 100.382 47.4926 100.193 47.4942 99.9954C47.4958 99.7978 47.4195 99.6077 47.2818 99.4661C47.144 99.3245 46.956 99.243 46.7585 99.2393C46.561 99.2355 46.37 99.3098 46.227 99.446Z" fill="#0073AA"/>
<path d="M43.47 99.514C43.5395 99.5838 43.6221 99.6392 43.713 99.677C43.804 99.7147 43.9015 99.7342 44 99.7342C44.0985 99.7342 44.196 99.7147 44.2869 99.677C44.3779 99.6392 44.4605 99.5838 44.53 99.514L48.53 95.514C48.6017 95.4449 48.6588 95.3621 48.6982 95.2706C48.7375 95.1792 48.7583 95.0808 48.7592 94.9812C48.7601 94.8816 48.7412 94.7828 48.7035 94.6906C48.6658 94.5984 48.6102 94.5147 48.5398 94.4442C48.4694 94.3738 48.3857 94.318 48.2935 94.2803C48.2014 94.2425 48.1026 94.2235 48.003 94.2243C47.9035 94.2251 47.805 94.2458 47.7135 94.2851C47.622 94.3243 47.5392 94.3814 47.47 94.453L43.47 98.453C43.4003 98.5227 43.345 98.6054 43.3073 98.6964C43.2696 98.7874 43.2502 98.885 43.2502 98.9835C43.2502 99.082 43.2696 99.1796 43.3073 99.2706C43.345 99.3617 43.4003 99.4444 43.47 99.514V99.514Z" fill="#0073AA"/>
<rect x="56" y="93" width="78" height="8" rx="3" fill="#0073AA"/>
<rect x="40" y="122" width="220" height="4" rx="2" fill="#E1E3E6"/>
<rect x="40" y="136" width="220" height="4" rx="2" fill="#E1E3E6"/>
<rect x="40" y="150" width="60" height="4" rx="2" fill="#E1E3E6"/>
<defs>
<filter id="filter0_d" x="-10" y="-6" width="320" height="221" filterUnits="userSpaceOnUse" color-interpolation-filters="sRGB">
<feFlood flood-opacity="0" result="BackgroundImageFix"/>
<feColorMatrix in="SourceAlpha" type="matrix" values="0 0 0 0 0 0 0 0 0 0 0 0 0 0 0 0 0 0 127 0"/>
<feOffset dy="4"/>
<feGaussianBlur stdDeviation="15"/>
<feColorMatrix type="matrix" values="0 0 0 0 0 0 0 0 0 0 0 0 0 0 0 0 0 0 0.25 0"/>
<feBlend mode="normal" in2="BackgroundImageFix" result="effect1_dropShadow"/>
<feBlend mode="normal" in="SourceGraphic" in2="effect1_dropShadow" result="shape"/>
</filter>
</defs>
</svg>
